Music_AzaleaTown:
; move header to header file to port to RBY
	channel_count 4
	channel 1, Music_AzaleaTown_Ch1
	channel 2, Music_AzaleaTown_Ch2
	channel 3, Music_AzaleaTown_Ch3
	channel 4, Music_AzaleaTown_Ch4

Music_AzaleaTown_Ch1:
	tempo 149
	volume 7, 7
	toggle_perfect_pitch
	duty_cycle 3
.mainloop:
	note_type 12, 11, 4
	rest 4
	note_type 12, 11, 4
	octave 3
	note E_, 4
	note_type 12, 12, 4
	note G#, 12
	note_type 12, 11, 4
	note C#, 4
	note E_, 4
	note C#, 4
	note_type 12, 12, 4
	note A_, 8
	note_type 12, 10, 4
	note G#, 8
	note_type 12, 11, 4
	note A_, 8
	note_type 12, 12, 4
	octave 4
	note C#, 8
	octave 3
	note E_, 8
	note_type 12, 11, 4
	note G#, 4
	note E_, 2
	note D#, 2
	note_type 12, 12, 4
	note C#, 8
	note_type 12, 11, 4
	note B_, 4
	note A_, 2
	note G#, 2
	note_type 12, 12, 4
	note A_, 8
	note_type 12, 11, 4
	note G#, 8
	note_type 12, 12, 4
	note A_, 8
	note_type 12, 10, 4
	note B_, 8
	rest 4
	note_type 12, 11, 4
	note E_, 4
	note_type 12, 12, 4
	note G#, 12
	note_type 12, 11, 4
	note C#, 4
	note E_, 4
	note C#, 4
	note_type 12, 12, 4
	note A_, 8
	note_type 12, 10, 4
	note G#, 8
	note_type 12, 11, 4
	note A_, 8
	note_type 12, 12, 4
	octave 4
	note C#, 8
	octave 3
	note E_, 8
	note_type 12, 11, 4
	note G#, 4
	note E_, 2
	note D#, 2
	note_type 12, 12, 4
	note C#, 8
	note_type 12, 11, 4
	note B_, 4
	note A_, 2
	note G#, 2
	note_type 12, 12, 4
	note A_, 8
	note_type 12, 10, 4
	note G#, 8
	note_type 12, 12, 4
	note F#, 8
	note_type 12, 11, 4
	note D#, 8
	octave 2
	note B_, 4
	octave 3
	note D#, 4
	note F#, 4
	note B_, 4
	note_type 12, 10, 4
	note A_, 2
	note B_, 2
	note A_, 2
	note_type 12, 11, 5
	note G#, 10
	note_type 12, 10, 4
	octave 2
	note B_, 4
	octave 3
	note C#, 4
	note D#, 4
	note F#, 4
	note F#, 2
	note G#, 2
	note F#, 2
	note_type 12, 11, 5
	note E_, 10
	note_type 12, 10, 6
	note A_, 8
	note G#, 8
	note F#, 8
	note E_, 8
	note_type 12, 10, 3
	note D#, 6
	note C#, 6
	note F#, 4
	note_type 12, 11, 3
	note B_, 6
	octave 4
	note C#, 6
	note D#, 4
	sound_loop 0, .mainloop

Music_AzaleaTown_Ch2:
	duty_cycle 3
.mainloop:
	vibrato 7, 2, 2
	note_type 12, 12, 5
	octave 4
	note E_, 2
	octave 3
	note B_, 2
	octave 4
	note D#, 2
	note E_, 4
	note F#, 4
	note G#, 2
	note_type 12, 13, 7
	note B_, 6
	note_type 12, 12, 5
	note G#, 4
	note F#, 4
	note G#, 2
	note_type 12, 14, 6
	note E_, 12
	vibrato 0, 0, 0
	note_type 12, 11, 4
	octave 3
	note E_, 4
	note C#, 8
	note E_, 8
	vibrato 7, 2, 2
	note_type 12, 12, 5
	octave 4
	note A_, 8
	vibrato 0, 0, 0
	note_type 12, 11, 4
	octave 3
	note C#, 4
	vibrato 7, 2, 2
	note_type 12, 12, 5
	octave 4
	note G#, 2
	note F#, 2
	note E_, 8
	vibrato 0, 0, 0
	note_type 12, 11, 4
	octave 3
	note E_, 4
	vibrato 7, 2, 2
	note_type 12, 12, 5
	octave 4
	note D#, 2
	note E_, 2
	note_type 12, 14, 6
	note F#, 16
	note_type 12, 11, 4
	octave 3
	note D#, 2
	note E_, 2
	rest 2
	note F#, 10
	vibrato 7, 2, 2
	note_type 12, 12, 5
	octave 4
	note E_, 2
	octave 3
	note B_, 2
	octave 4
	note D#, 2
	note E_, 4
	note F#, 4
	note G#, 2
	note_type 12, 13, 7
	note B_, 6
	note_type 12, 12, 5
	note G#, 4
	note F#, 4
	note G#, 2
	note_type 12, 14, 6
	note E_, 12
	vibrato 0, 0, 0
	note_type 12, 11, 4
	octave 3
	note E_, 4
	note C#, 8
	note E_, 8
	vibrato 7, 2, 2
	note_type 12, 12, 5
	octave 4
	note A_, 8
	vibrato 0, 0, 0
	note_type 12, 11, 4
	octave 3
	note C#, 4
	vibrato 7, 2, 2
	note_type 12, 12, 5
	octave 4
	note G#, 2
	note F#, 2
	note E_, 8
	vibrato 0, 0, 0
	note_type 12, 11, 4
	octave 3
	note E_, 4
	vibrato 7, 2, 2
	note_type 12, 12, 5
	octave 4
	note D#, 2
	note E_, 2
	note_type 12, 14, 6
	note F#, 16
	note_type 12, 11, 4
	octave 3
	note D#, 2
	octave 2
	note B_, 2
	rest 2
	octave 3
	note B_, 10
	duty_cycle 2
	vibrato 0, 0, 0
	note_type 12, 10, 5
	note F#, 2
	note E_, 2
	note D#, 2
	note B_, 4
	note A_, 4
	note G#, 2
	note F#, 2
	note G#, 2
	note F#, 2
	note_type 12, 11, 7
	note E_, 10
	note_type 12, 10, 5
	note F#, 2
	note E_, 2
	note D#, 2
	note F#, 4
	note B_, 4
	octave 4
	note D#, 2
	note D#, 2
	note E_, 2
	note D#, 2
	note_type 12, 11, 7
	octave 3
	note G#, 10
	note_type 12, 11, 5
	note G#, 2
	note F#, 2
	note E_, 2
	note_type 12, 10, 7
	note G#, 4
	note F#, 4
	note_type 12, 11, 5
	note E_, 2
	note G#, 2
	note F#, 2
	note E_, 2
	note_type 12, 10, 7
	note G#, 4
	octave 4
	note C#, 4
	note D#, 2
	note_type 12, 12, 7
	octave 3
	note B_, 16
	duty_cycle 3
	note_type 12, 10, 3
	note D#, 6
	note E_, 6
	note F#, 4
	sound_loop 0, .mainloop

Music_AzaleaTown_Ch3:
.mainloop:
	note_type 12, 1, 0
	octave 4
	note G#, 1
	rest 1
	octave 5
	note E_, 1
	rest 1
	octave 4
	note G#, 1
	rest 1
	octave 5
	note E_, 1
	rest 1
	octave 4
	note G#, 1
	rest 1
	octave 5
	note E_, 1
	rest 1
	octave 4
	note G#, 1
	rest 1
	octave 5
	note E_, 1
	rest 1
	octave 4
	note G#, 1
	rest 1
	note B_, 1
	rest 1
	note G#, 1
	rest 1
	note B_, 1
	rest 1
	note G#, 1
	rest 1
	note B_, 1
	rest 1
	note E_, 1
	rest 1
	note B_, 1
	rest 1
	note A_, 1
	rest 1
	octave 5
	note C#, 1
	rest 1
	octave 4
	note A_, 1
	rest 1
	octave 5
	note C#, 1
	rest 1
	octave 4
	note A_, 1
	rest 1
	octave 5
	note C#, 1
	rest 1
	octave 4
	note B_, 1
	rest 1
	octave 5
	note C#, 1
	rest 1
	octave 4
	note F#, 1
	rest 1
	note A_, 1
	rest 1
	note F#, 1
	rest 1
	note A_, 1
	rest 1
	note F#, 1
	rest 1
	note A_, 1
	rest 1
	octave 5
	note C#, 1
	rest 1
	octave 4
	note A_, 1
	rest 1
	note A_, 1
	rest 1
	octave 5
	note C#, 1
	rest 1
	octave 4
	note A_, 1
	rest 1
	octave 5
	note C#, 1
	rest 1
	octave 4
	note A_, 1
	rest 1
	octave 5
	note C#, 1
	rest 1
	octave 4
	note B_, 1
	rest 1
	octave 5
	note C#, 1
	rest 1
	octave 4
	note F#, 1
	rest 1
	note A_, 1
	rest 1
	note F#, 1
	rest 1
	note A_, 1
	rest 1
	note F#, 1
	rest 1
	note A_, 1
	rest 1
	octave 5
	note C#, 1
	rest 1
	octave 4
	note A_, 1
	rest 1
	octave 4
	note B_, 1
	rest 1
	octave 5
	note D#, 1
	rest 1
	octave 4
	note B_, 1
	rest 1
	octave 5
	note D#, 1
	rest 1
	octave 4
	note B_, 1
	rest 1
	octave 5
	note D#, 1
	rest 1
	octave 4
	note B_, 1
	rest 1
	octave 5
	note D#, 1
	rest 1
	octave 4
	note B_, 1
	rest 1
	octave 5
	note D#, 1
	rest 1
	note F#, 1
	rest 1
	note D#, 1
	rest 1
	note A_, 1
	rest 1
	note D#, 1
	rest 1
	octave 4
	note B_, 1
	rest 1
	octave 5
	note D#, 1
	rest 1
	octave 4
	note G#, 1
	rest 1
	octave 5
	note E_, 1
	rest 1
	octave 4
	note G#, 1
	rest 1
	octave 5
	note E_, 1
	rest 1
	octave 4
	note G#, 1
	rest 1
	octave 5
	note E_, 1
	rest 1
	octave 4
	note G#, 1
	rest 1
	octave 5
	note E_, 1
	rest 1
	octave 4
	note G#, 1
	rest 1
	note B_, 1
	rest 1
	note G#, 1
	rest 1
	note B_, 1
	rest 1
	note G#, 1
	rest 1
	note B_, 1
	rest 1
	note E_, 1
	rest 1
	note B_, 1
	rest 1
	note A_, 1
	rest 1
	octave 5
	note C#, 1
	rest 1
	octave 4
	note A_, 1
	rest 1
	octave 5
	note C#, 1
	rest 1
	octave 4
	note A_, 1
	rest 1
	octave 5
	note C#, 1
	rest 1
	octave 4
	note B_, 1
	rest 1
	octave 5
	note C#, 1
	rest 1
	octave 4
	note F#, 1
	rest 1
	note A_, 1
	rest 1
	note F#, 1
	rest 1
	note A_, 1
	rest 1
	note F#, 1
	rest 1
	note A_, 1
	rest 1
	octave 5
	note C#, 1
	rest 1
	octave 4
	note A_, 1
	rest 1
	note A_, 1
	rest 1
	octave 5
	note C#, 1
	rest 1
	octave 4
	note A_, 1
	rest 1
	octave 5
	note C#, 1
	rest 1
	octave 4
	note A_, 1
	rest 1
	octave 5
	note C#, 1
	rest 1
	octave 4
	note B_, 1
	rest 1
	octave 5
	note C#, 1
	rest 1
	octave 4
	note F#, 1
	rest 1
	note A_, 1
	rest 1
	note F#, 1
	rest 1
	note A_, 1
	rest 1
	note F#, 1
	rest 1
	note A_, 1
	rest 1
	octave 5
	note C#, 1
	rest 1
	octave 4
	note A_, 1
	rest 1
	octave 4
	note B_, 1
	rest 1
	octave 5
	note D#, 1
	rest 1
	octave 4
	note B_, 1
	rest 1
	octave 5
	note D#, 1
	rest 1
	octave 4
	note B_, 1
	rest 1
	octave 5
	note D#, 1
	rest 1
	octave 4
	note B_, 1
	rest 1
	octave 5
	note D#, 1
	rest 1
	octave 4
	note B_, 1
	rest 1
	octave 5
	note D#, 1
	rest 1
	note F#, 1
	rest 1
	note D#, 1
	rest 1
	note A_, 1
	rest 1
	note D#, 1
	rest 1
	octave 4
	note B_, 1
	rest 1
	octave 5
	note D#, 1
	rest 1
	octave 4
	note A_, 1
	rest 1
	octave 5
	note D#, 1
	rest 1
	octave 4
	note A_, 1
	rest 1
	octave 5
	note D#, 1
	rest 1
	octave 4
	note A_, 1
	rest 1
	octave 5
	note D#, 1
	rest 1
	octave 4
	note A_, 1
	rest 1
	octave 5
	note D#, 1
	rest 1
	octave 4
	note G#, 1
	rest 1
	note B_, 1
	rest 1
	note G#, 1
	rest 1
	note B_, 1
	rest 1
	note G#, 1
	rest 1
	note B_, 1
	rest 1
	note G#, 1
	rest 1
	note B_, 1
	rest 1
	note A_, 1
	rest 1
	octave 5
	note D#, 1
	rest 1
	octave 4
	note A_, 1
	rest 1
	octave 5
	note D#, 1
	rest 1
	octave 4
	note A_, 1
	rest 1
	octave 5
	note D#, 1
	rest 1
	octave 4
	note A_, 1
	rest 1
	octave 5
	note D#, 1
	rest 1
	octave 4
	note G#, 1
	rest 1
	octave 5
	note C#, 1
	rest 1
	octave 4
	note G#, 1
	rest 1
	octave 5
	note C#, 1
	rest 1
	octave 4
	note G#, 1
	rest 1
	octave 5
	note C#, 1
	rest 1
	octave 4
	note G#, 1
	rest 1
	octave 5
	note C#, 1
	rest 1
	octave 4
	note A_, 1
	rest 1
	octave 5
	note C#, 1
	rest 1
	octave 4
	note A_, 1
	rest 1
	octave 5
	note C#, 1
	rest 1
	octave 4
	note A_, 1
	rest 1
	octave 5
	note C#, 1
	rest 1
	octave 4
	note A_, 1
	rest 1
	octave 5
	note C#, 1
	rest 1
	octave 4
	note A_, 1
	rest 1
	octave 5
	note C#, 1
	rest 1
	octave 4
	note A_, 1
	rest 1
	octave 5
	note C#, 1
	rest 1
	octave 4
	note A_, 1
	rest 1
	octave 5
	note C#, 1
	rest 1
	octave 4
	note A#, 1
	rest 1
	octave 5
	note C#, 1
	rest 1
	octave 4
	note B_, 1
	rest 1
	octave 5
	note D#, 1
	rest 1
	octave 4
	note B_, 1
	rest 1
	octave 5
	note D#, 1
	rest 1
	octave 4
	note B_, 1
	rest 1
	octave 5
	note D#, 1
	rest 1
	octave 4
	note B_, 1
	rest 1
	octave 5
	note D#, 1
	rest 1
	octave 4
	note B_, 1
	rest 1
	octave 5
	note D#, 1
	rest 1
	note F#, 1
	rest 1
	note D#, 1
	rest 1
	note A_, 1
	rest 1
	note D#, 1
	rest 1
	octave 4
	note B_, 1
	rest 1
	octave 5
	note D#, 1
	rest 1
	sound_loop 0, .mainloop

Music_AzaleaTown_Ch4:
	drum_speed 12
.mainloop:
	drum_note 6, 6
	drum_note 6, 6
	drum_note 7, 4
	drum_note 6, 6
	drum_note 6, 4
	drum_note 6, 2
	drum_note 7, 2
	drum_note 6, 2
	sound_loop 0, .mainloop
