Music_ChampionBattle:
; move header to header file to port to RBY
	channel_count 3
	channel 1, Music_ChampionBattle_Ch1
	channel 2, Music_ChampionBattle_Ch2
	channel 3, Music_ChampionBattle_Ch3

Music_ChampionBattle_Ch1:
	tempo 98
	volume 7, 7
	duty_cycle 3
	toggle_perfect_pitch
	vibrato 18, 1, 5
	note_type 12, 11, 2
	octave 2
	note A#, 8
	note A#, 8
	note A#, 8
	note A#, 4
	note_type 12, 11, 7
	note B_, 4
	note_type 12, 11, 2
	octave 2
	note A#, 2
	note A#, 6
	note A#, 2
	note A#, 6
	note A#, 2
	note A#, 6
	note A#, 2
	note A#, 2
	note_type 12, 11, 7
	octave 3
	note D#, 4
	note_type 12, 11, 2
	octave 2
	note A#, 2
	note A#, 6
	note A#, 2
	note A#, 6
	note A#, 2
	note A#, 6
	note A#, 2
	note A#, 2
	note_type 12, 11, 7
	octave 3
	note D#, 4
	note_type 12, 11, 2
	octave 2
	note A#, 2
	note A#, 6
	note A#, 2
	note A#, 6
	note A#, 2
	note A#, 6
	note A#, 2
	note A#, 2
	note_type 12, 11, 7
	octave 3
	note E_, 4
	note_type 12, 11, 2
	octave 2
	note A#, 2
	note A#, 2
	note_type 12, 11, 7
	octave 3
	note D#, 4
	note_type 12, 11, 2
	octave 2
	note A#, 2
	note A#, 2
	note_type 12, 11, 7
	octave 3
	note D#, 4
	note_type 12, 11, 2
	octave 2
	note A#, 2
	note A#, 2
	note_type 12, 11, 7
	octave 3
	note D#, 4
	note_type 12, 11, 2
	octave 2
	note A#, 2
	note A#, 2
	note_type 12, 11, 7
	note B_, 4
	note_type 12, 11, 2
	octave 2
	note A#, 2
	note A#, 2
	note_type 12, 11, 7
	octave 3
	note D#, 4
	note_type 12, 11, 2
	octave 2
	note A#, 2
	note A#, 2
	note_type 12, 11, 7
	octave 3
	note D#, 4
	note_type 12, 11, 2
	octave 2
	note A#, 2
	note A#, 2
	note_type 12, 11, 7
	octave 3
	note D#, 4
	note_type 12, 11, 2
	octave 2
	note A#, 2
	note A#, 2
	note_type 12, 11, 7
	octave 3
	note D#, 4
	note_type 12, 11, 2
	octave 2
	note A#, 2
	note A#, 2
	note_type 12, 11, 7
	octave 3
	note D#, 4
	note_type 12, 11, 2
	octave 2
	note A#, 2
	note A#, 2
	note_type 12, 11, 7
	octave 3
	note D#, 4
	note_type 12, 11, 2
	octave 2
	note A#, 2
	note A#, 2
	note_type 12, 11, 7
	octave 3
	note D#, 4
	note_type 12, 11, 2
	octave 2
	note A#, 2
	note A#, 2
	note_type 12, 11, 7
	note B_, 4
	note_type 12, 11, 2
	note A#, 2
	note A#, 2
	note_type 12, 11, 7
	octave 3
	note D#, 4
	note_type 12, 11, 2
	octave 2
	note A#, 2
	note A#, 2
	note_type 12, 11, 7
	octave 3
	note E_, 4
	note_type 12, 11, 2
	octave 2
	note A#, 2
	note A#, 2
	note_type 12, 11, 7
	octave 3
	note F#, 4
	note_type 12, 11, 2
	octave 2
	note A#, 2
	note A#, 2
	note_type 12, 11, 7
	octave 3
	note G#, 4
	note_type 12, 10, 0
	note A#, 8
	octave 2
	note A#, 8
	octave 3
	note B_, 12
	note_type 12, 11, 2
	note A#, 1
	note B_, 1
	octave 4
	note C_, 1
	note C#, 1
.mainloop:
	note_type 12, 11, 5
	octave 3
	note D#, 2
	note A#, 2
	note D#, 2
	note F#, 4
	note F_, 2
	note E_, 2
	note B_, 2
	note F#, 2
	note A#, 2
	note F_, 2
	note A_, 2
	note E_, 2
	note G#, 2
	note D#, 2
	note G_, 2
	note_type 12, 11, 2
	note E_, 2
	note E_, 2
	note_type 12, 11, 7
	note F#, 4
	note_type 12, 11, 2
	note E_, 2
	note E_, 2
	note_type 12, 11, 7
	note G#, 4
	note_type 12, 11, 2
	note E_, 2
	note E_, 2
	note_type 12, 11, 7
	note G#, 4
	note_type 12, 11, 2
	note E_, 2
	note E_, 2
	note_type 12, 11, 7
	note B_, 4
	note_type 12, 11, 5
	octave 3
	note D#, 2
	note A#, 2
	note D#, 2
	note F#, 4
	note F_, 2
	note E_, 2
	note B_, 2
	note F#, 2
	note A#, 2
	note F_, 2
	note A_, 2
	note E_, 2
	note G#, 2
	note D#, 2
	note G_, 2
	note_type 12, 11, 2
	note E_, 2
	note E_, 2
	note_type 12, 11, 7
	note F#, 4
	note_type 12, 11, 2
	note E_, 2
	note E_, 2
	note_type 12, 11, 7
	note G#, 4
	note_type 12, 11, 2
	note E_, 2
	note E_, 2
	note_type 12, 11, 7
	note B_, 4
	note_type 12, 11, 2
	note E_, 2
	note E_, 2
	note_type 12, 11, 7
	octave 4
	note E_, 4
	note_type 12, 11, 2
	octave 3
	note A#, 2
	note A#, 4
	note A#, 4
	note A#, 4
	note A#, 4
	note A#, 4
	note A#, 2
	note_type 12, 11, 7
	note B_, 4
	note G#, 4
	note_type 12, 11, 2
	note A#, 2
	note A#, 4
	note A#, 4
	note A#, 4
	note A#, 4
	note A#, 4
	note A#, 2
	note_type 12, 11, 7
	octave 4
	note D_, 4
	note D_, 4
	note_type 12, 10, 0
	octave 3
	note A#, 8
	octave 2
	note A#, 8
	octave 3
	note F#, 8
	octave 2
	note F#, 8
	note_type 12, 6, 0
	note B_, 16
	note_type 12, 7, 0
	note B_, 16
	note_type 12, 8, 0
	octave 3
	note C#, 16
	note_type 12, 10, 0
	note D#, 16
	note_type 12, 11, 4
	octave 4
	note F#, 4
	note F_, 4
	note E_, 4
	note D#, 4
	note D_, 4
	note C#, 4
	note F#, 4
	note F#, 4
	note F#, 4
	note F_, 4
	note E_, 4
	note D#, 4
	note F#, 2
	note G#, 2
	note D#, 2
	note E_, 2
	note F#, 4
	note F#, 4
	rest 16
	note_type 12, 9, 0
	octave 3
	note F#, 8
	note_type 12, 11, 4
	note E_, 4
	note E_, 4
	note_type 12, 9, 0
	note D#, 16
	note C#, 16
	note_type 12, 11, 2
	octave 2
	note A#, 2
	note A#, 2
	note_type 12, 11, 7
	octave 3
	note D#, 4
	note_type 12, 11, 2
	octave 2
	note A#, 2
	note A#, 2
	note_type 12, 11, 7
	octave 3
	note D#, 4
	note_type 12, 11, 2
	octave 2
	note A#, 2
	note A#, 2
	note_type 12, 11, 7
	octave 3
	note D#, 4
	note_type 12, 11, 2
	octave 2
	note A#, 2
	note A#, 2
	note_type 12, 11, 7
	octave 3
	note D#, 4
	note_type 12, 11, 2
	note C_, 2
	note C_, 2
	note_type 12, 11, 7
	note D#, 4
	note_type 12, 11, 2
	note C_, 2
	note C_, 2
	note_type 12, 11, 7
	note D#, 4
	note_type 12, 11, 2
	note C_, 2
	note C_, 2
	note_type 12, 11, 7
	note F#, 4
	note_type 12, 11, 2
	note C_, 2
	note C_, 2
	note_type 12, 11, 7
	note G#, 4
	note_type 12, 11, 2
	note D#, 2
	note D#, 2
	note_type 12, 11, 7
	note A#, 4
	note_type 12, 11, 2
	note D#, 2
	note D#, 2
	note_type 12, 11, 7
	note B_, 4
	note_type 12, 11, 2
	note D#, 2
	note D#, 2
	note_type 12, 11, 7
	octave 4
	note C#, 4
	note_type 12, 11, 2
	octave 3
	note D#, 2
	note D#, 2
	note_type 12, 11, 7
	note B_, 4
	note_type 12, 11, 2
	note D#, 2
	note D#, 2
	note_type 12, 11, 7
	note A#, 4
	note_type 12, 11, 2
	note D#, 2
	note D#, 2
	note_type 12, 11, 7
	note B_, 4
	note_type 12, 11, 2
	note D#, 2
	note D#, 2
	note_type 12, 11, 7
	octave 4
	note C#, 4
	note_type 12, 11, 2
	octave 3
	note D#, 2
	note D#, 2
	note_type 12, 11, 7
	octave 4
	note D_, 4
	sound_loop 0, .mainloop

Music_ChampionBattle_Ch2:
	duty_cycle 3
	vibrato 8, 3, 6
	note_type 12, 12, 2
	octave 3
	note D#, 8
	note D#, 8
	note D#, 8
	note D#, 4
	note_type 12, 12, 7
	note D_, 4
	note_type 12, 12, 2
	note D#, 2
	note D#, 6
	note D#, 2
	note D#, 6
	note D#, 2
	note D#, 6
	note D#, 2
	note D#, 2
	note_type 12, 12, 7
	note A#, 4
	note_type 12, 12, 2
	note D#, 2
	note D#, 6
	note D#, 2
	note D#, 6
	note D#, 2
	note D#, 6
	note D#, 2
	note D#, 2
	note_type 12, 12, 7
	note B_, 4
	note_type 12, 12, 2
	note D#, 2
	note D#, 6
	note D#, 2
	note D#, 6
	note D#, 2
	note D#, 6
	note D#, 2
	note D#, 2
	note_type 12, 12, 7
	octave 4
	note C#, 4
	note_type 12, 12, 2
	octave 3
	note D#, 2
	note D#, 2
	note_type 12, 12, 7
	note A#, 4
	note_type 12, 12, 2
	note D#, 2
	note D#, 2
	note_type 12, 12, 7
	note B_, 4
	note_type 12, 12, 2
	note D#, 2
	note D#, 2
	note_type 12, 12, 7
	note A#, 4
	note_type 12, 12, 2
	note D#, 2
	note D#, 2
	note_type 12, 12, 7
	note D_, 4
	note_type 12, 12, 2
	octave 3
	note D#, 2
	note D#, 2
	note_type 12, 12, 7
	note A#, 4
	note_type 12, 12, 2
	note D#, 2
	note D#, 2
	note_type 12, 12, 7
	note B_, 4
	note_type 12, 12, 2
	note D#, 2
	note D#, 2
	note_type 12, 12, 7
	note A#, 4
	note_type 12, 12, 2
	note D#, 2
	note D#, 2
	note_type 12, 12, 7
	note F_, 4
	note_type 12, 12, 2
	octave 3
	note D#, 2
	note D#, 2
	note_type 12, 12, 7
	note A#, 4
	note_type 12, 12, 2
	note D#, 2
	note D#, 2
	note_type 12, 12, 7
	note B_, 4
	note_type 12, 12, 2
	note D#, 2
	note D#, 2
	note_type 12, 12, 7
	note A#, 4
	note_type 12, 12, 2
	note D#, 2
	note D#, 2
	note_type 12, 12, 7
	note D_, 4
	note_type 12, 12, 2
	note D#, 2
	note D#, 2
	note_type 12, 12, 7
	note A#, 4
	note_type 12, 12, 2
	note D#, 2
	note D#, 2
	note_type 12, 12, 7
	note B_, 4
	note_type 12, 12, 2
	note D#, 2
	note D#, 2
	note_type 12, 12, 7
	octave 4
	note C_, 4
	note_type 12, 12, 2
	octave 3
	note D#, 2
	note D#, 2
	note_type 12, 12, 7
	octave 4
	note C#, 4
	note D#, 8
	octave 3
	note D#, 8
	octave 4
	note E_, 8
	note_type 12, 3, -4
	note E_, 8
.mainloop:
	note_type 12, 12, 5
	note D#, 6
	octave 3
	note A#, 6
	octave 4
	note D#, 2
	note D_, 2
	note C#, 4
	note C_, 4
	octave 3
	note B_, 4
	note A#, 4
	note_type 12, 12, 7
	note B_, 8
	octave 4
	note E_, 8
	note_type 12, 12, 2
	octave 3
	note G#, 2
	note G#, 2
	note_type 12, 12, 7
	note B_, 4
	note_type 12, 12, 2
	note G#, 2
	note G#, 2
	note_type 12, 12, 7
	octave 4
	note C#, 4
	note_type 12, 12, 5
	note D#, 6
	octave 3
	note A#, 6
	octave 4
	note D#, 2
	note D_, 2
	note C#, 4
	note C_, 4
	octave 3
	note B_, 4
	note A#, 2
	note B_, 2
	note_type 12, 12, 7
	octave 4
	note E_, 8
	note G#, 8
	note E_, 8
	note B_, 8
	note_type 12, 12, 1
	note D#, 2
	note D#, 4
	note D#, 4
	note D#, 4
	note D#, 4
	note D#, 4
	note D#, 2
	note_type 12, 12, 5
	note E_, 4
	note E_, 4
	note_type 12, 12, 1
	note D#, 2
	note D#, 4
	note D#, 4
	note D#, 4
	note D#, 4
	note D#, 4
	note D#, 2
	note_type 12, 12, 5
	note F#, 4
	note F#, 4
	note_type 12, 12, 7
	note D#, 8
	octave 3
	note D#, 8
	octave 4
	note C#, 8
	octave 3
	note C#, 8
	note_type 12, 11, 0
	note D#, 16
	note D#, 16
	note F_, 16
	note F#, 16
	note_type 12, 12, 4
	octave 5
	note D#, 4
	note D_, 4
	note C#, 4
	note C_, 4
	note D#, 2
	note D_, 2
	note C#, 2
	note C_, 2
	octave 4
	note B_, 4
	note B_, 4
	octave 5
	note D#, 4
	note D_, 4
	note C#, 4
	note C_, 4
	note D#, 2
	note D_, 2
	note C#, 2
	note C_, 2
	octave 4
	note B_, 4
	note B_, 4
	note_type 12, 11, 0
	octave 3
	note D#, 16
	note B_, 16
	note A#, 16
	note G#, 16
	note_type 12, 12, 2
	note D#, 2
	note D#, 2
	note_type 12, 12, 7
	note A#, 4
	note_type 12, 12, 2
	note D#, 2
	note D#, 2
	note_type 12, 12, 7
	note B_, 4
	note_type 12, 12, 2
	note D#, 2
	note D#, 2
	note_type 12, 12, 7
	note A#, 4
	note_type 12, 12, 2
	note D#, 2
	note D#, 2
	note_type 12, 12, 7
	note A_, 4
	note_type 12, 12, 2
	note D#, 2
	note D#, 2
	note_type 12, 12, 7
	note A#, 4
	note_type 12, 12, 2
	note D#, 2
	note D#, 2
	note_type 12, 12, 7
	note B_, 4
	note_type 12, 12, 2
	note D#, 2
	note D#, 2
	note_type 12, 12, 7
	octave 4
	note C#, 4
	note_type 12, 12, 2
	octave 3
	note D#, 2
	note D#, 2
	note_type 12, 12, 7
	octave 4
	note D_, 4
	note_type 12, 11, 0
	note D#, 8
	note E_, 8
	note F#, 8
	note E_, 8
	note D#, 8
	note E_, 8
	note F#, 8
	note G#, 8
	sound_loop 0, .mainloop

Music_ChampionBattle_Ch3:
	note_type 12, 1, 4
	octave 3
	note D#, 1
	rest 7
	note D#, 1
	rest 7
	note D#, 1
	rest 7
	note D#, 1
	rest 3
	note E_, 4
	note D#, 1
	rest 1
	note D#, 1
	rest 5
	note D#, 1
	rest 1
	note D#, 1
	rest 5
	note D#, 1
	rest 1
	note D#, 1
	rest 5
	note D#, 1
	rest 1
	note D#, 1
	rest 1
	note B_, 4
	note D#, 1
	rest 1
	note D#, 1
	rest 5
	note D#, 1
	rest 1
	note D#, 1
	rest 5
	note D#, 1
	rest 1
	note D#, 1
	rest 5
	note D#, 1
	rest 1
	note D#, 1
	rest 1
	note B_, 4
	note D#, 1
	rest 1
	note D#, 1
	rest 5
	note D#, 1
	rest 1
	note D#, 1
	rest 5
	note D#, 1
	rest 1
	note D#, 1
	rest 5
	note D#, 1
	rest 1
	note D#, 1
	rest 1
	note B_, 4
	note D#, 1
	rest 1
	note D#, 1
	rest 1
	note A#, 4
	note D#, 1
	rest 1
	note D#, 1
	rest 1
	note B_, 4
	note D#, 1
	rest 1
	note D#, 1
	rest 1
	note A#, 4
	note D#, 1
	rest 1
	note D#, 1
	rest 1
	note D_, 4
	note D#, 1
	rest 1
	note D#, 1
	rest 1
	note A#, 4
	note D#, 1
	rest 1
	note D#, 1
	rest 1
	note B_, 4
	note D#, 1
	rest 1
	note D#, 1
	rest 1
	note A#, 4
	note D#, 1
	rest 1
	note D#, 1
	rest 1
	note A_, 4
	note D#, 1
	rest 1
	note D#, 1
	rest 1
	note A#, 4
	note D#, 1
	rest 1
	note D#, 1
	rest 1
	note B_, 4
	note D#, 1
	rest 1
	note D#, 1
	rest 1
	note A#, 4
	note D#, 1
	rest 1
	note D#, 1
	rest 1
	note D_, 4
	note D#, 1
	rest 1
	note D#, 1
	rest 1
	note A#, 4
	note D#, 1
	rest 1
	note D#, 1
	rest 1
	note A#, 4
	note D#, 1
	rest 1
	note D#, 1
	rest 1
	note B_, 4
	note D#, 1
	rest 1
	note D#, 1
	rest 1
	octave 4
	note C#, 4
	note D#, 8
	octave 3
	note D#, 8
	note B_, 4
	note G_, 2
	note B_, 2
	note F#, 2
	note A#, 2
	note F_, 2
	note A_, 2
.mainloop:
	note D#, 2
	note A#, 2
	note D#, 2
	note A#, 2
	note D#, 2
	note A#, 2
	note D#, 2
	note A#, 2
	note D#, 2
	note A#, 2
	note D#, 2
	note A#, 2
	note D#, 2
	note A#, 2
	note D#, 2
	note A#, 2
	note E_, 2
	note B_, 2
	note E_, 2
	note B_, 2
	note E_, 2
	note B_, 2
	note E_, 2
	note B_, 2
	note E_, 2
	note B_, 2
	note E_, 2
	octave 4
	note C_, 2
	octave 3
	note A_, 2
	note B_, 2
	note G_, 2
	note A_, 2
	note D#, 2
	note A#, 2
	note D#, 2
	note A#, 2
	note D#, 2
	note A#, 2
	note D#, 2
	note A#, 2
	note D#, 2
	note A#, 2
	note D#, 2
	note A#, 2
	note D#, 2
	note A#, 2
	note D#, 2
	note A#, 2
	note E_, 2
	note B_, 2
	note E_, 2
	note B_, 2
	note E_, 2
	note B_, 2
	note E_, 2
	note B_, 2
	note E_, 2
	note B_, 2
	note E_, 2
	note B_, 2
	note E_, 2
	note B_, 2
	note E_, 2
	note B_, 2
	octave 3
	note D#, 2
	note F#, 2
	note D#, 2
	note F#, 2
	note D#, 2
	octave 4
	note D_, 2
	note C#, 2
	note C_, 2
	octave 3
	note D#, 2
	note E_, 2
	note D#, 2
	note E_, 2
	note D#, 2
	octave 4
	note D_, 2
	note C#, 2
	note C_, 2
	octave 3
	note D#, 2
	note F#, 2
	note D#, 2
	note F#, 2
	note D#, 2
	octave 4
	note D_, 2
	note C#, 2
	note C_, 2
	octave 3
	note D#, 2
	note A#, 2
	note D#, 2
	note A#, 2
	note D#, 2
	octave 4
	note D_, 2
	note C#, 2
	note C_, 2
	octave 3
	note A#, 8
	note D#, 8
	note B_, 8
	note D#, 8
	note D#, 2
	note F#, 2
	note D#, 2
	note F#, 2
	note D#, 2
	note F#, 2
	note D#, 2
	note F#, 2
	note D#, 2
	note F#, 2
	note D#, 2
	note F#, 2
	note D#, 2
	note F#, 2
	note D#, 2
	note F#, 2
	note D#, 2
	note F#, 2
	note D#, 2
	note F#, 2
	note D#, 2
	note F#, 2
	note D#, 2
	note F#, 2
	note D#, 2
	note F#, 2
	note D#, 2
	note F#, 2
	note D#, 2
	note F#, 2
	note D#, 2
	note F#, 2
	octave 3
	note E_, 2
	note B_, 2
	note E_, 2
	note B_, 2
	note E_, 2
	note B_, 2
	octave 4
	note D#, 2
	note E_, 2
	octave 3
	note E_, 2
	note B_, 2
	octave 4
	note D#, 2
	note E_, 2
	note F#, 2
	octave 3
	note B_, 2
	octave 4
	note D#, 2
	note E_, 2
	octave 3
	note E_, 2
	note B_, 2
	note E_, 2
	note B_, 2
	note E_, 2
	note B_, 2
	octave 4
	note D#, 2
	note E_, 2
	octave 3
	note E_, 2
	note B_, 2
	note E_, 2
	note B_, 2
	note E_, 2
	note B_, 2
	note E_, 2
	note B_, 2
	note D#, 2
	note A#, 2
	note D#, 2
	note A#, 2
	note D#, 2
	note A#, 2
	note D#, 2
	note A#, 2
	note D#, 2
	note A#, 2
	note B_, 2
	octave 4
	note D#, 2
	octave 3
	note D#, 2
	rest 2
	note D#, 2
	rest 2
	note E_, 2
	note B_, 2
	note E_, 2
	note B_, 2
	note E_, 2
	note B_, 2
	note E_, 2
	note B_, 2
	note E_, 2
	note B_, 2
	octave 4
	note C#, 2
	note E_, 2
	octave 3
	note E_, 2
	rest 2
	note E_, 2
	rest 2
	note D#, 2
	note G#, 2
	note D#, 2
	note G#, 2
	note D#, 2
	note G#, 2
	note D#, 2
	note G#, 2
	note D#, 2
	note G#, 2
	note D#, 2
	note G#, 2
	note D#, 2
	note G#, 2
	note D#, 2
	note G#, 2
	note D#, 2
	note A#, 2
	note D#, 2
	note A#, 2
	note D#, 2
	note A#, 2
	note D#, 2
	note A#, 2
	note D#, 2
	note A#, 2
	note D#, 2
	note A#, 2
	note D#, 2
	note A#, 2
	note B_, 2
	note A#, 2
	octave 3
	note D#, 2
	note A#, 2
	octave 4
	note D_, 2
	note D#, 2
	octave 3
	note D#, 2
	note A#, 2
	octave 4
	note D_, 2
	note D#, 2
	octave 3
	note D#, 2
	note A#, 2
	octave 4
	note D_, 2
	note D#, 2
	octave 3
	note D#, 2
	note A#, 2
	octave 4
	note D_, 2
	note D#, 2
	octave 3
	note D#, 2
	note A#, 2
	octave 4
	note D_, 2
	note D#, 2
	octave 3
	note D#, 2
	note A#, 2
	octave 4
	note D_, 2
	note D#, 2
	octave 3
	note D#, 2
	note A#, 2
	octave 4
	note D_, 2
	note D#, 2
	note C#, 2
	octave 3
	note B_, 2
	note A#, 2
	note G#, 2
	sound_loop 0, .mainloop
