Music_CherrygroveCity:
; move header to header file to port to RBY
	channel_count 4
	channel 1, Music_CherrygroveCity_Ch1
	channel 2, Music_CherrygroveCity_Ch2
	channel 3, Music_CherrygroveCity_Ch3
	channel 4, Music_CherrygroveCity_Ch4

Music_CherrygroveCity_Ch1:
	tempo 151
	volume 7, 7
	toggle_perfect_pitch
	duty_cycle 3
	vibrato 8, 4, 3
	note_type 12, 9, 7
	rest 4
	octave 3
	note C_, 6
	note_type 12, 10, 3
	octave 2
	note G_, 2
	octave 3
	note C_, 2
	note E_, 2
.mainloop:
	note_type 12, 10, 3
	note F_, 4
	note C_, 2
	note_type 12, 11, 4
	note F_, 6
	note_type 12, 10, 3
	note F_, 2
	note G_, 2
	note_type 12, 11, 4
	note F_, 6
	note C_, 2
	note_type 12, 10, 3
	note A_, 4
	note F_, 4
	note_type 12, 11, 4
	note D_, 6
	note D_, 6
	note_type 12, 10, 3
	note F_, 4
	note G_, 4
	octave 4
	note C_, 4
	octave 3
	note G_, 4
	note C_, 4
	note_type 12, 10, 3
	note F_, 4
	note D_, 2
	note_type 12, 11, 3
	note A#, 4
	note_type 12, 10, 3
	note D_, 2
	note F_, 2
	note G_, 2
	note_type 12, 11, 3
	note A_, 4
	note F_, 4
	note C_, 4
	note E_, 4
	note_type 12, 10, 3
	note F_, 4
	note D_, 2
	note_type 12, 11, 3
	note A#, 4
	note_type 12, 10, 3
	note D_, 2
	note F_, 2
	note G_, 2
	note_type 12, 11, 3
	note E_, 4
	note D_, 4
	note C_, 4
	note E_, 4
	note_type 12, 10, 3
	note F_, 4
	note D_, 2
	note_type 12, 11, 3
	note A#, 4
	note_type 12, 10, 3
	note D_, 2
	note F_, 2
	note G_, 2
	note_type 12, 11, 3
	note A_, 4
	note F_, 4
	note C_, 4
	note E_, 4
	note_type 12, 10, 4
	note F_, 6
	note A#, 6
	note_type 12, 9, 4
	octave 4
	note C_, 4
	note_type 12, 11, 3
	note C_, 4
	octave 3
	note A#, 4
	note A_, 4
	note C_, 4
	sound_loop 0, .mainloop

Music_CherrygroveCity_Ch2:
	duty_cycle 2
	vibrato 11, 3, 3
	note_type 12, 11, 3
	octave 4
	note C_, 2
	note D_, 2
	note E_, 2
	note D_, 2
	note E_, 2
	note G_, 2
	note A_, 2
	note A#, 2
.mainloop:
	note_type 12, 13, 4
	octave 5
	note C_, 6
	note D_, 6
	note_type 12, 11, 3
	note C_, 2
	octave 4
	note A#, 2
	note_type 12, 13, 4
	octave 5
	note C_, 6
	octave 4
	note A_, 2
	note_type 12, 14, 4
	note F_, 8
	note_type 12, 13, 4
	note A#, 6
	octave 5
	note C_, 6
	note_type 12, 11, 3
	octave 4
	note A#, 2
	note A_, 2
	note_type 12, 13, 4
	note A#, 6
	note G_, 2
	note_type 12, 14, 4
	note E_, 8
	note_type 12, 13, 4
	note D_, 6
	note F_, 6
	note_type 12, 11, 3
	octave 5
	note D_, 4
	note_type 12, 13, 4
	note C_, 6
	octave 4
	note A_, 2
	note_type 12, 14, 4
	note F_, 8
	note_type 12, 13, 3
	note D_, 6
	note F_, 6
	octave 5
	note D_, 4
	note_type 12, 14, 0
	note C_, 8
	note_type 12, 14, 4
	note C_, 8
	note_type 12, 13, 4
	octave 4
	note D_, 6
	note F_, 6
	note_type 12, 11, 3
	octave 5
	note D_, 4
	note_type 12, 13, 4
	note C_, 6
	octave 4
	note A_, 2
	note_type 12, 14, 4
	note F_, 8
	note_type 12, 13, 3
	note D_, 6
	note F_, 6
	note G_, 4
	note_type 12, 14, 0
	note F_, 8
	note_type 12, 14, 4
	note F_, 8
	sound_loop 0, .mainloop

Music_CherrygroveCity_Ch3:
	note_type 12, 1, 2
	rest 10
	octave 4
	note E_, 2
	note F_, 2
	note G_, 2
.mainloop:
	octave 4
	note A_, 4
	note F_, 2
	note A#, 4
	note F_, 2
	note D_, 4
	note A_, 4
	note G_, 4
	note F_, 4
	note C_, 2
	note F_, 2
	note G_, 4
	note D_, 2
	note G_, 2
	note F_, 2
	note E_, 2
	note D_, 2
	note C_, 2
	note E_, 4
	note D_, 2
	note E_, 1
	note D_, 1
	note C_, 2
	octave 3
	note G_, 2
	octave 4
	note C_, 2
	note G_, 2
	octave 4
	note F_, 2
	note A#, 4
	note F_, 2
	note D_, 2
	note A#, 2
	note A_, 2
	note A#, 2
	note F_, 2
	octave 5
	note C_, 2
	octave 4
	note G_, 2
	octave 5
	note C_, 2
	octave 4
	note A_, 2
	octave 5
	note C_, 2
	octave 4
	note G_, 2
	octave 5
	note C_, 2
	octave 4
	note F_, 2
	note A#, 4
	note F_, 2
	note D_, 2
	note A#, 2
	note A_, 2
	note A#, 2
	note G_, 2
	octave 5
	note C_, 2
	octave 4
	note F_, 2
	octave 5
	note C_, 2
	octave 4
	note E_, 2
	octave 5
	note C_, 2
	octave 4
	note G_, 2
	octave 5
	note C_, 2
	octave 4
	note F_, 2
	note A#, 4
	note F_, 2
	note D_, 2
	note A#, 2
	note A_, 2
	note A#, 2
	note F_, 2
	octave 5
	note C_, 2
	octave 4
	note G_, 2
	octave 5
	note C_, 2
	octave 4
	note A_, 2
	octave 5
	note C_, 2
	octave 4
	note G_, 2
	octave 5
	note C_, 2
	octave 4
	note F_, 2
	note A#, 4
	note F_, 2
	note D_, 2
	note A#, 2
	note A_, 2
	note A#, 2
	note A_, 2
	octave 5
	note C_, 2
	octave 4
	note G_, 2
	octave 5
	note C_, 2
	octave 4
	note F_, 2
	octave 5
	note C_, 2
	octave 4
	note G_, 2
	octave 5
	note C_, 2
	sound_loop 0, .mainloop

Music_CherrygroveCity_Ch4:
	drum_speed 12
	rest 8
	drum_note 7 + 6, 4
	drum_note 7 + 10, 2
	drum_note 7 + 10, 2
.mainloop:
	drum_note 7 + 10, 4
	drum_note 7 + 6, 2
	drum_note 7 + 10, 4
	drum_note 7 + 9, 2
	drum_note 7 + 10, 4
	drum_note 7 + 10, 4
	drum_note 7 + 5, 2
	drum_note 7 + 12, 2
	drum_note 7 + 10, 2
	drum_note 7 + 9, 2
	drum_note 7 + 6, 4
	sound_loop 0, .mainloop