Music_DragonsDen:
; move header to header file to port to RBY
	channel_count 4
	channel 1, Music_DragonsDen_Ch1
	channel 2, Music_DragonsDen_Ch2
	channel 3, Music_DragonsDen_Ch3
	channel 4, Music_DragonsDen_Ch4

Music_DragonsDen_Ch1:
	tempo 144
	volume 7, 7
	duty_cycle 0
	toggle_perfect_pitch
.mainloop:
	note_type 12, 8, 0
	octave 3
	note A#, 12
	note A_, 4
	note A#, 12
	note A_, 4
	note A#, 6
	octave 4
	note C_, 4
	note C#, 6
	note E_, 16
	note D#, 12
	note D_, 4
	octave 3
	note G#, 16
	rest 16
	note_type 12, 11, 1
	rest 2
	octave 4
	note C#, 3
	note C#, 3
	note C#, 3
	note C#, 3
	note C#, 4
	note C#, 3
	note C#, 3
	note C#, 4
	note C#, 2
	note C#, 2
	rest 2
	rest 2
	note C#, 3
	note C#, 3
	note C#, 3
	note C#, 3
	note C#, 4
	note C#, 3
	note C#, 3
	note C#, 4
	note C#, 2
	note C#, 2
	rest 2
	rest 2
	note C#, 3
	note C#, 3
	note C#, 3
	note C#, 3
	note C#, 4
	note C#, 3
	note C#, 3
	note C#, 4
	note C#, 2
	note C#, 2
	rest 2
	rest 2
	note C#, 3
	note C#, 3
	note C#, 3
	note C#, 3
	note C#, 4
	note C#, 3
	note C#, 3
	note C#, 4
	note C#, 2
	note C#, 2
	rest 10
	sound_loop 0, .mainloop

Music_DragonsDen_Ch2:
	duty_cycle 0
	toggle_perfect_pitch
.mainloop:
	note_type 12, 9, 0
	octave 4
	note D#, 12
	note D_, 4
	note D#, 12
	note D_, 4
	note D#, 6
	note F_, 4
	note F#, 6
	note A_, 16
	note G#, 12
	note G_, 4
	note C#, 16
	rest 16
	note_type 12, 12, 1
	octave 5
	note C#, 4
	octave 4
	note G#, 4
	note G#, 4
	note G#, 4
	octave 5
	note C#, 4
	octave 4
	note G#, 4
	note G#, 4
	note G#, 4
	octave 5
	note C#, 4
	octave 4
	note G#, 4
	note G#, 4
	note G#, 4
	octave 5
	note C#, 4
	octave 4
	note G#, 4
	note G#, 4
	note G#, 4
	octave 5
	note C#, 4
	octave 4
	note G#, 4
	note G#, 4
	note G#, 4
	octave 5
	note C#, 4
	octave 4
	note G#, 4
	note G#, 4
	note G#, 4
	octave 5
	note C#, 4
	octave 4
	note G#, 4
	note G#, 4
	note G#, 4
	octave 5
	note C#, 4
	octave 4
	note G#, 4
	note G#, 4
	note G#, 4
	rest 16
	sound_loop 0, .mainloop

Music_DragonsDen_Ch3:
	note_type 12, 1, 4
	octave 4
	note C#, 2
	octave 3
	note G#, 1
	octave 4
	note C#, 1
	octave 3
	note G#, 2
	octave 4
	note C#, 2
	octave 3
	note G#, 1
	octave 4
	note C#, 1
	octave 3
	note G#, 2
	octave 4
	note C#, 2
	octave 3
	note G#, 1
	octave 4
	note C#, 1
	note C#, 2
	octave 3
	note G#, 1
	octave 4
	note C#, 1
	octave 3
	note G#, 2
	octave 4
	note C#, 2
	octave 3
	note G#, 1
	octave 4
	note C#, 1
	octave 3
	note G#, 2
	octave 4
	note C#, 2
	octave 3
	note G#, 1
	octave 4
	note C#, 1
	note C#, 2
	octave 3
	note G#, 1
	octave 4
	note C#, 1
	octave 3
	note G#, 2
	octave 4
	note C#, 2
	octave 3
	note G#, 1
	octave 4
	note C#, 1
	octave 3
	note G#, 2
	octave 4
	note C#, 2
	octave 3
	note G#, 1
	octave 4
	note C#, 1
	note C#, 2
	octave 3
	note G#, 1
	octave 4
	note C#, 1
	octave 3
	note G#, 2
	octave 4
	note C#, 2
	octave 3
	note G#, 1
	octave 4
	note C#, 1
	octave 3
	note G#, 2
	octave 4
	note C#, 2
	octave 3
	note G#, 1
	octave 4
	note C#, 1
	note C#, 2
	octave 3
	note G#, 1
	octave 4
	note C#, 1
	octave 3
	note G#, 2
	octave 4
	note C#, 2
	octave 3
	note G#, 1
	octave 4
	note C#, 1
	octave 3
	note G#, 2
	octave 4
	note C#, 2
	octave 3
	note G#, 1
	octave 4
	note C#, 1
	note C#, 2
	octave 3
	note G#, 1
	octave 4
	note C#, 1
	octave 3
	note G#, 2
	octave 4
	note C#, 2
	octave 3
	note G#, 1
	octave 4
	note C#, 1
	octave 3
	note G#, 2
	octave 4
	note C#, 2
	octave 3
	note G#, 1
	octave 4
	note C#, 1
	note C#, 2
	octave 3
	note G#, 1
	octave 4
	note C#, 1
	octave 3
	note G#, 2
	octave 4
	note C#, 2
	octave 3
	note G#, 1
	octave 4
	note C#, 1
	octave 3
	note G#, 2
	octave 4
	note C#, 2
	octave 3
	note G#, 1
	octave 4
	note C#, 1
	note C#, 2
	octave 3
	note G#, 1
	octave 4
	note C#, 1
	octave 3
	note G#, 2
	octave 4
	note C#, 2
	octave 3
	note G#, 1
	octave 4
	note C#, 1
	octave 3
	note G#, 2
	octave 4
	note C#, 2
	octave 3
	note G#, 1
	octave 4
	note C#, 1
	note C#, 2
	octave 3
	note G#, 1
	octave 4
	note C#, 1
	octave 3
	note G#, 2
	octave 4
	note C#, 2
	octave 3
	note G#, 1
	octave 4
	note C#, 1
	octave 3
	note G#, 2
	octave 4
	note C#, 2
	octave 3
	note G#, 1
	octave 4
	note C#, 1
	note C#, 2
	octave 3
	note G#, 1
	octave 4
	note C#, 1
	octave 3
	note G#, 2
	octave 4
	note C#, 2
	octave 3
	note G#, 1
	octave 4
	note C#, 1
	octave 3
	note G#, 2
	octave 4
	note C#, 2
	octave 3
	note G#, 1
	octave 4
	note C#, 1
	note C#, 2
	octave 3
	note G#, 1
	octave 4
	note C#, 1
	octave 3
	note G#, 2
	octave 4
	note C#, 2
	octave 3
	note G#, 1
	octave 4
	note C#, 1
	octave 3
	note G#, 2
	octave 4
	note C#, 2
	octave 3
	note G#, 1
	octave 4
	note C#, 1
	note C#, 2
	octave 3
	note G#, 1
	octave 4
	note C#, 1
	octave 3
	note G#, 2
	octave 4
	note C#, 2
	octave 3
	note G#, 1
	octave 4
	note C#, 1
	octave 3
	note G#, 2
	octave 4
	note C#, 2
	octave 3
	note G#, 1
	octave 4
	note C#, 1
	note C#, 2
	octave 3
	note G#, 1
	octave 4
	note C#, 1
	octave 3
	note G#, 2
	octave 4
	note C#, 2
	octave 3
	note G#, 1
	octave 4
	note C#, 1
	octave 3
	note G#, 2
	octave 4
	note C#, 2
	octave 3
	note G#, 1
	octave 4
	note C#, 1
	note C#, 2
	octave 3
	note G#, 1
	octave 4
	note C#, 1
	octave 3
	note G#, 2
	octave 4
	note C#, 2
	octave 3
	note G#, 1
	octave 4
	note C#, 1
	octave 3
	note G#, 2
	octave 4
	note C#, 2
	octave 3
	note G#, 1
	octave 4
	note C#, 1
	note C#, 2
	octave 3
	note G#, 1
	octave 4
	note C#, 1
	octave 3
	note G#, 2
	octave 4
	note C#, 2
	octave 3
	note G#, 1
	octave 4
	note C#, 1
	octave 3
	note G#, 2
	octave 4
	note C#, 2
	octave 3
	note G#, 1
	octave 4
	note C#, 1
	rest 16
	sound_loop 0, Music_DragonsDen_Ch3

Music_DragonsDen_Ch4:
	drum_speed 12
	rest 16
	rest 16
.mainloop:
	drum_note 6, 4
	drum_note 7, 4
	drum_note 7, 4
	drum_note 7, 4
	sound_loop 0, .mainloop
