Music_EcruteakCity:
	channel_count 3
	channel 1, Music_EcruteakCity_Ch1
	channel 2, Music_EcruteakCity_Ch2
	channel 3, Music_EcruteakCity_Ch3

Music_EcruteakCity_Ch1:
	tempo 179
	volume 7, 7
	toggle_perfect_pitch
	duty_cycle 2
	note_type 12, 10, 5
	rest 4
.mainloop:
	octave 3
	note E_, 6
	note G_, 2
	note G_, 4
	octave 4
	note C_, 4
	octave 3
	note G_, 2
	octave 4
	note C_, 4
	octave 3
	note A_, 2
	octave 4
	note C_, 4
	note D_, 2
	note C_, 2
	octave 3
	note C_, 4
	note E_, 4
	note A_, 8
	note C_, 2
	note E_, 2
	note G_, 4
	note D_, 2
	note G_, 2
	note A_, 2
	note B_, 2
	octave 3
	note E_, 6
	note G_, 2
	note G_, 4
	octave 4
	note C_, 4
	octave 3
	note G_, 2
	octave 4
	note C_, 4
	octave 3
	note A_, 2
	octave 4
	note C_, 4
	note D_, 2
	note C_, 2
	octave 3
	note E_, 2
	rest 6
	note A_, 2
	note E_, 2
	note D_, 2
	note E_, 2
	note C_, 6
	note D_, 2
	note B_, 4
	octave 4
	note G_, 4
	note C_, 4
	note E_, 4
	octave 3
	note A_, 2
	note E_, 6
	note G_, 4
	note F_, 4
	note E_, 4
	note D_, 4
	note B_, 6
	note G_, 6
	note B_, 4
	note E_, 6
	note A_, 6
	note G_, 2
	note E_, 2
	note C_, 2
	note F_, 4
	note A_, 2
	octave 4
	note C_, 2
	octave 3
	note A_, 2
	note F_, 4
	note D_, 2
	note E_, 2
	note F_, 2
	note G_, 4
	note B_, 2
	note G_, 2
	note F_, 2
	note G_, 6
	octave 4
	note C_, 2
	note C_, 4
	octave 3
	note G_, 4
	note G_, 8
	octave 4
	note C_, 4
	note D_, 4
	note C_, 4
	note E_, 4
	octave 3
	note A_, 2
	note E_, 6
	note G_, 4
	note F_, 4
	note E_, 4
	note D_, 4
	note B_, 6
	note G_, 6
	note B_, 4
	note E_, 6
	note A_, 6
	note G_, 2
	note E_, 2
	note C_, 2
	note F_, 4
	note A_, 2
	octave 4
	note C_, 2
	octave 3
	note A_, 2
	note F_, 4
	note D_, 2
	note E_, 2
	note F_, 2
	note G_, 4
	note B_, 2
	note G_, 2
	note F_, 2
	note G_, 16
	sound_loop 0, .mainloop

Music_EcruteakCity_Ch2:
	duty_cycle 2
	vibrato 38, 3, 4
	note_type 12, 10, 5
	octave 3
	note G_, 4
.mainloop:
	duty_cycle 2
	note_type 12, 11, 7
	octave 4
	note D_, 6
	note C_, 10
	note E_, 6
	note F_, 4
	note E_, 2
	note F_, 2
	note G_, 2
	note E_, 2
	note C_, 2
	note C_, 2
	octave 3
	note A_, 2
	octave 4
	note C_, 8
	note E_, 2
	note G_, 2
	note E_, 2
	note D_, 10
	note D_, 6
	note C_, 10
	note E_, 6
	note F_, 4
	note E_, 2
	note F_, 2
	note G_, 2
	note A_, 2
	note E_, 2
	note E_, 2
	note C_, 2
	note C_, 2
	octave 3
	note A_, 2
	note B_, 2
	octave 4
	note C_, 2
	note E_, 6
	note D_, 2
	note D_, 8
	duty_cycle 3
	note_type 12, 13, 7
	note A_, 8
	octave 3
	note A_, 2
	octave 4
	note C_, 2
	note E_, 2
	note D_, 6
	note C_, 4
	octave 3
	note B_, 4
	octave 4
	note F_, 4
	note G_, 6
	note F_, 6
	note E_, 4
	note D_, 2
	note C_, 2
	octave 3
	note B_, 2
	octave 4
	note C_, 6
	octave 3
	note B_, 2
	octave 4
	note C_, 2
	octave 3
	note A_, 10
	octave 4
	note F_, 2
	note E_, 2
	note D_, 2
	note C_, 6
	octave 3
	note B_, 6
	octave 4
	note C_, 2
	note D_, 2
	note_type 12, 14, 7
	note E_, 16
	note_type 12, 13, 7
	note D_, 4
	note C_, 4
	note F_, 4
	note G_, 4
	note A_, 6
	note_type 12, 13, 2
	note E_, 2
	note E_, 2
	note E_, 2
	note A_, 2
	note E_, 2
	note_type 12, 14, 5
	note E_, 6
	note D_, 6
	note D_, 2
	note F_, 2
	note G_, 6
	note_type 12, 13, 2
	note D_, 2
	note D_, 2
	note D_, 2
	note G_, 2
	note D_, 2
	note_type 12, 13, 7
	note B_, 6
	octave 5
	note C_, 2
	octave 4
	note A_, 4
	octave 3
	note A_, 2
	octave 4
	note C_, 2
	note_type 12, 14, 7
	note F_, 10
	note G_, 2
	note F_, 2
	note E_, 2
	note D_, 12
	note C_, 2
	note D_, 2
	note E_, 6
	note E_, 10
	sound_loop 0, .mainloop

Music_EcruteakCity_Ch3:
	note_type 12, 1, 3
	rest 4
.mainloop:
	octave 4
	note C_, 2
	note G_, 2
	rest 2
	note E_, 6
	note G_, 4
	note F_, 2
	rest 4
	note C_, 6
	octave 3
	note B_, 4
	note A_, 2
	rest 6
	octave 4
	note A_, 2
	note E_, 2
	note C_, 2
	octave 3
	note A_, 2
	note G_, 2
	rest 2
	note B_, 2
	octave 4
	note D_, 4
	note E_, 2
	note F_, 2
	note G_, 2
	note C_, 2
	note G_, 2
	rest 2
	note E_, 6
	note G_, 4
	note F_, 2
	rest 4
	note C_, 6
	octave 3
	note B_, 4
	note A_, 2
	rest 2
	octave 5
	note A_, 2
	note E_, 2
	note E_, 2
	note C_, 2
	octave 4
	note E_, 2
	note A_, 2
	note G_, 2
	rest 2
	note B_, 2
	note G_, 2
	octave 5
	note D_, 2
	octave 4
	note F_, 2
	note D_, 2
	note E_, 2
	octave 4
	note C_, 1
	rest 1
	note E_, 1
	rest 3
	octave 5
	note C_, 1
	rest 1
	octave 4
	note A_, 1
	rest 1
	note E_, 1
	rest 1
	note A_, 1
	rest 1
	octave 5
	note C_, 1
	rest 1
	octave 4
	note D_, 1
	rest 1
	note B_, 1
	rest 1
	note D_, 1
	rest 1
	note A_, 1
	rest 1
	note D_, 1
	rest 1
	note G_, 1
	rest 1
	note D_, 1
	rest 1
	note A_, 1
	rest 1
	note E_, 1
	rest 1
	note B_, 1
	rest 1
	note G_, 1
	rest 1
	note E_, 1
	rest 1
	note B_, 1
	rest 1
	note A_, 1
	rest 1
	note G_, 1
	rest 1
	note B_, 1
	rest 1
	note E_, 1
	rest 1
	note A_, 1
	rest 1
	note G_, 1
	rest 1
	note E_, 1
	rest 3
	octave 5
	note C_, 1
	rest 3
	octave 4
	note A_, 1
	rest 1
	note F_, 1
	rest 1
	note A_, 1
	rest 3
	octave 5
	note C_, 1
	rest 1
	note F_, 1
	rest 1
	note C_, 1
	rest 1
	octave 4
	note B_, 1
	rest 1
	note A_, 1
	rest 1
	note G_, 1
	rest 1
	octave 5
	note C_, 1
	rest 3
	note D_, 1
	rest 1
	note G_, 1
	rest 1
	note D_, 1
	rest 1
	note C_, 1
	rest 1
	octave 4
	note B_, 1
	rest 1
	octave 5
	note C_, 4
	octave 4
	note G_, 4
	note F_, 4
	note E_, 4
	octave 3
	note A#, 2
	octave 4
	note C_, 2
	note F_, 2
	note G_, 2
	note A_, 4
	octave 3
	note B_, 4
	octave 4
	note C_, 1
	rest 1
	note E_, 1
	rest 3
	octave 5
	note C_, 1
	rest 1
	octave 4
	note A_, 1
	rest 1
	note E_, 1
	rest 1
	note A_, 1
	rest 1
	octave 5
	note C_, 1
	rest 1
	octave 4
	note D_, 1
	rest 1
	note B_, 1
	rest 1
	note D_, 1
	rest 1
	note A_, 1
	rest 1
	note D_, 1
	rest 1
	note G_, 1
	rest 1
	note D_, 1
	rest 1
	note A_, 1
	rest 1
	note E_, 1
	rest 1
	note B_, 1
	rest 1
	note G_, 1
	rest 1
	note E_, 1
	rest 1
	note B_, 1
	rest 1
	note A_, 1
	rest 1
	note G_, 1
	rest 1
	note B_, 1
	rest 1
	note E_, 1
	rest 1
	note A_, 1
	rest 1
	note G_, 1
	rest 1
	note E_, 1
	rest 3
	octave 5
	note C_, 1
	rest 3
	octave 4
	note A_, 1
	rest 1
	note F_, 1
	rest 1
	note A_, 1
	rest 3
	octave 5
	note C_, 1
	rest 1
	note F_, 1
	rest 1
	note C_, 1
	rest 1
	octave 4
	note B_, 1
	rest 1
	note A_, 1
	rest 1
	note G_, 1
	rest 1
	octave 5
	note C_, 1
	rest 3
	note D_, 1
	rest 1
	note G_, 1
	rest 1
	note D_, 1
	rest 1
	note C_, 1
	rest 1
	octave 4
	note B_, 1
	rest 1
	note C_, 2
	note G_, 2
	octave 5
	note D_, 2
	rest 4
	note C_, 2
	octave 4
	note G_, 2
	note D_, 2
	sound_loop 0, .mainloop
