Music_LavenderTownHappy:
	channel_count 4
	channel 1, Music_LavenderTownHappy_Ch1
	channel 2, Music_LavenderTownHappy_Ch2
	channel 3, Music_LavenderTownHappy_Ch3
	channel 4, Music_LavenderTownHappy_Ch4

Music_LavenderTownHappy_Ch1:
	tempo 152
	volume 7, 7
	vibrato 0, 2, 4
	duty_cycle 3
	note_type 12, 9, 1
	rest 16
	rest 16
	rest 16
	rest 8
	octave 5
	note B_, 4
	octave 6
	note D_, 4
.mainloop:
	vibrato 0, 2, 4
	duty_cycle 3
	note_type 12, 9, 1
	octave 5
	note C_, 4
	note G_, 4
	octave 6
	note C_, 4
	octave 5
	note G_, 4
	note D_, 4
	note A_, 4
	octave 6
	note D_, 4
	octave 5
	note A_, 4
	note E_, 4
	note B_, 4
	octave 6
	note E_, 4
	octave 5
	note B_, 4
	note C#, 4
	note G_, 4
	note A#, 4
	note G_, 4
	note C_, 4
	note F_, 4
	octave 6
	note C_, 4
	octave 5
	note F_, 4
	note C_, 4
	note F#, 4
	note B_, 4
	note A_, 4
	note G_, 4
	note F_, 4
	note D_, 4
	note G_, 4
	note F_, 4
	note D_, 4
	octave 4
	note B_, 4
	note G_, 4
	octave 5
	note C_, 4
	note G_, 4
	octave 6
	note C_, 4
	octave 5
	note G_, 4
	note D_, 4
	note A_, 4
	octave 6
	note D_, 4
	octave 5
	note A_, 4
	note E_, 4
	note B_, 4
	octave 6
	note E_, 4
	octave 5
	note B_, 4
	note C#, 4
	note G_, 4
	note A#, 4
	note G_, 4
	note C_, 4
	note F_, 4
	octave 6
	note C_, 4
	octave 5
	note F_, 4
	note D_, 4
	note G_, 4
	note B_, 4
	note G_, 4
	note G_, 4
	note F_, 4
	note D_, 4
	note G_, 4
	octave 6
	note C_, 4
	octave 5
	note G_, 4
	note E_, 4
	note C_, 4
	toggle_perfect_pitch
	vibrato 7, 5, 2
	duty_cycle 3
	note_type 12, 8, 5
	octave 3
	note F_, 2
	note E_, 2
	note F_, 2
	note G_, 2
	note A_, 4
	note C_, 4
	note D_, 4
	note C_, 4
	octave 2
	note G_, 8
	octave 3
	note F_, 2
	note E_, 2
	note F_, 2
	note G_, 2
	note A_, 4
	note C_, 4
	note A_, 4
	note G_, 4
	note F_, 4
	note E_, 4
	note F_, 2
	note E_, 2
	note F_, 2
	note G_, 2
	note A_, 4
	note E_, 4
	note D_, 4
	note F#, 2
	note G_, 2
	note A_, 4
	note E_, 4
	note F_, 8
	note G_, 4
	note E_, 4
	note D_, 8
	note G_, 8
	toggle_perfect_pitch
	sound_loop 0, .mainloop

Music_LavenderTownHappy_Ch2:
	vibrato 0, 2, 4
	duty_cycle 3
	note_type 12, 9, 1
	octave 5
	note C_, 4
	note G_, 4
	note B_, 4
	note F#, 4
	note C_, 4
	note G_, 4
	note B_, 4
	note F#, 4
	note C_, 4
	note G_, 4
	note B_, 4
	note F#, 4
	note C_, 4
	note G_, 4
	duty_cycle 2
	vibrato 0, 4, 3
	note_type 12, 9, 7
	octave 4
	note E_, 4
	note F_, 4
.mainloop:
	note G_, 8
	note G_, 8
	note E_, 8
	note E_, 4
	note F_, 4
	note G_, 4
	note F_, 4
	note E_, 4
	note B_, 4
	note C#, 10
	note C#, 2
	note D_, 2
	note E_, 2
	note F_, 10
	note G_, 2
	note F_, 2
	note E_, 2
	note D_, 8
	octave 3
	note A_, 4
	octave 4
	note D_, 4
	note E_, 12
	note F_, 2
	note E_, 2
	note D_, 12
	note E_, 2
	note F_, 2
	note G_, 8
	note G_, 8
	note E_, 8
	note E_, 4
	note F_, 4
	note G_, 4
	note F_, 4
	note E_, 4
	note B_, 4
	note C#, 10
	note C#, 2
	note D_, 2
	note E_, 2
	note F_, 10
	note G_, 2
	note F_, 2
	note E_, 2
	note D_, 12
	note C_, 2
	note D_, 2
	note C_, 16
	note C_, 16
	duty_cycle 3
	vibrato 0, 7, 4
	note_type 12, 11, 7
	octave 2
	note F_, 16
	note C_, 16
	note F_, 16
	note C_, 16
	note F_, 16
	note F#, 16
	note G_, 16
	note G_, 8
	duty_cycle 2
	vibrato 0, 4, 3
	note_type 12, 9, 7
	octave 4
	note E_, 4
	note F_, 4
	sound_loop 0, .mainloop

Music_LavenderTownHappy_Ch3:
	vibrato 4, 2, 4
	note_type 12, 2, 2
	rest 16
	rest 16
	rest 16
	rest 16
.mainloop:
	note_type 12, 2, 2
	octave 4
	note C_, 16
	note D_, 16
	note E_, 16
	note E_, 8
	note G_, 8
	note A_, 8
	octave 5
	note C_, 8
	octave 4
	note A_, 8
	octave 5
	note C_, 8
	octave 4
	note G_, 8
	octave 5
	note C_, 8
	octave 4
	note G_, 8
	note D_, 8
	note C_, 16
	note D_, 16
	note E_, 16
	note E_, 8
	note G_, 8
	octave 5
	note C_, 8
	octave 4
	note G_, 8
	note B_, 8
	note G_, 8
	octave 3
	note G_, 8
	octave 4
	note C_, 8
	octave 3
	note E_, 4
	note G_, 4
	octave 4
	note C_, 4
	note E_, 4
	note_type 12, 1, 3
	note A_, 2
	note G_, 2
	note A_, 2
	note B_, 2
	octave 5
	note C_, 4
	octave 4
	note G_, 4
	note F_, 4
	note E_, 4
	note D_, 4
	note C_, 4
	note A_, 2
	note G_, 2
	note A_, 2
	note B_, 2
	octave 5
	note C_, 4
	octave 4
	note G_, 4
	octave 5
	note F_, 4
	note E_, 4
	note D_, 4
	note C_, 4
	octave 4
	note A_, 2
	note G_, 2
	note A_, 2
	note B_, 2
	octave 5
	note C_, 4
	octave 4
	note G_, 4
	note A_, 2
	note G_, 2
	note A_, 2
	note B_, 2
	octave 5
	note C_, 4
	note C#, 4
	note D_, 12
	note C_, 4
	octave 4
	note B_, 16
	sound_loop 0, .mainloop

Music_LavenderTownHappy_Ch4:
	drum_speed 12
	rest 16
	rest 16
	rest 16
	rest 16
.mainloop:
	drum_speed 12
	drum_note 7, 8
	drum_note 7, 8
	drum_note 7, 8
	drum_note 7, 8
	drum_note 7, 8
	drum_note 7, 8
	drum_note 7, 8
	drum_note 7, 8
	drum_note 7, 8
	drum_note 7, 8
	drum_note 7, 8
	drum_note 7, 8
	drum_note 7, 8
	drum_note 7, 8
	drum_note 7, 8
	drum_note 7, 8
	drum_note 7, 8
	drum_note 7, 8
	drum_note 7, 8
	drum_note 7, 8
	drum_note 7, 8
	drum_note 7, 8
	drum_note 7, 8
	drum_note 7, 8
	drum_note 7, 8
	drum_note 7, 8
	drum_note 7, 8
	drum_note 7, 8
	drum_note 7, 8
	drum_note 7, 8
	drum_note 7, 8
	drum_note 7, 8
	rest 16
	rest 16
	rest 16
	rest 16
	rest 16
	rest 16
	rest 16
	rest 16
	sound_loop 0, .mainloop