Music_Route37:
	channel_count 4
	channel 1, Music_Route37_Ch1
	channel 2, Music_Route37_Ch2
	channel 3, Music_Route37_Ch3
	channel 4, Music_Route37_Ch4

Music_Route37_Ch1:
	tempo 144
	volume 7, 7
	duty_cycle 3
	toggle_perfect_pitch
	vibrato 16, 2, 2
	note_type 12, 11, 3
	rest 16
	rest 16
.mainloop:
	note_type 12, 11, 3
	rest 2
	octave 2
	note F#, 2
	note B_, 2
	octave 3
	note E_, 2
	note_type 12, 11, 7
	note D#, 10
	note_type 12, 11, 3
	note E_, 4
	note D#, 4
	note C#, 4
	octave 2
	note B_, 2
	octave 3
	note D#, 3
	octave 2
	note B_, 1
	note_type 12, 11, 7
	note F#, 8
	note B_, 8
	octave 3
	note B_, 12
	note_type 12, 11, 3
	rest 2
	octave 2
	note F#, 2
	note B_, 2
	octave 3
	note E_, 2
	note_type 12, 11, 7
	note D#, 10
	octave 2
	note A_, 4
	octave 3
	note C#, 4
	note E_, 4
	note A_, 2
	note F#, 3
	note A_, 1
	note B_, 6
	octave 2
	note B_, 2
	octave 3
	note D#, 2
	note F#, 2
	note B_, 2
	note A_, 4
	note F#, 4
	note E_, 2
	note D#, 4
	note_type 12, 12, 2
	octave 2
	note A_, 2
	note A_, 1
	note A_, 1
	note A_, 2
	note A_, 1
	note A_, 1
	note A_, 1
	note A_, 1
	note A_, 2
	note_type 12, 11, 7
	octave 3
	note C#, 4
	note_type 12, 12, 2
	octave 2
	note A_, 2
	note A_, 1
	note A_, 1
	note A_, 2
	note A_, 1
	note A_, 1
	note A_, 1
	note A_, 1
	note A_, 2
	note_type 12, 11, 7
	octave 3
	note C#, 4
	note_type 12, 12, 2
	octave 2
	note B_, 2
	note B_, 1
	note B_, 1
	note B_, 2
	note B_, 1
	note B_, 1
	note B_, 1
	note B_, 1
	note B_, 2
	note_type 12, 11, 7
	octave 3
	note F#, 4
	note_type 12, 12, 2
	octave 2
	note B_, 2
	note B_, 1
	note B_, 1
	note B_, 2
	note B_, 1
	note B_, 1
	note B_, 1
	note B_, 1
	note B_, 2
	note_type 12, 11, 7
	octave 3
	note F#, 4
	note_type 12, 12, 2
	octave 2
	note A_, 2
	note A_, 1
	note A_, 1
	note A_, 2
	note A_, 1
	note A_, 1
	note A_, 1
	note A_, 1
	note A_, 2
	note_type 12, 11, 7
	octave 3
	note E_, 4
	note_type 12, 12, 2
	octave 2
	note A_, 2
	note A_, 1
	note A_, 1
	note A_, 2
	note A_, 1
	note A_, 1
	note A_, 1
	note A_, 1
	note A_, 2
	note_type 12, 11, 7
	octave 3
	note G#, 4
	note_type 12, 12, 2
	octave 2
	note B_, 2
	note B_, 1
	note B_, 1
	note B_, 2
	note B_, 1
	note B_, 1
	note B_, 1
	note B_, 1
	note B_, 2
	note_type 12, 11, 7
	octave 4
	note D#, 4
	note_type 12, 12, 2
	octave 2
	note B_, 2
	note B_, 1
	note B_, 1
	note B_, 2
	note B_, 1
	note B_, 1
	note B_, 1
	note B_, 1
	note B_, 2
	note_type 12, 11, 7
	octave 3
	note F_, 4
	note_type 12, 12, 2
	octave 2
	note B_, 2
	note B_, 1
	note B_, 1
	note B_, 2
	note B_, 1
	note B_, 1
	note B_, 1
	note B_, 1
	note B_, 2
	note_type 12, 11, 7
	rest 4
	note_type 12, 12, 2
	octave 2
	note B_, 2
	note B_, 1
	note B_, 1
	note B_, 2
	note B_, 1
	note B_, 1
	note B_, 1
	note B_, 1
	note B_, 2
	note_type 12, 11, 7
	rest 4
	sound_loop 0, .mainloop

Music_Route37_Ch2:
	duty_cycle 3
	vibrato 28, 1, 2
	note_type 12, 12, 2
	octave 2
	note B_, 2
	note_type 12, 12, 1
	note B_, 1
	note B_, 1
	note_type 12, 12, 2
	note B_, 2
	note_type 12, 12, 1
	note B_, 1
	note B_, 1
	note B_, 1
	note B_, 1
	note_type 12, 12, 2
	note B_, 6
	note B_, 2
	note_type 12, 12, 1
	note B_, 1
	note B_, 1
	note_type 12, 12, 2
	note B_, 2
	note_type 12, 12, 1
	note B_, 1
	note B_, 1
	note B_, 1
	note B_, 1
	note_type 12, 12, 2
	note B_, 2
.mainloop:
	note_type 12, 12, 7
	octave 3
	note F#, 4
	note_type 12, 11, 0
	note B_, 5
	note_type 12, 11, 7
	note B_, 5
	note_type 12, 12, 3
	note F#, 2
	note F#, 2
	note B_, 2
	note_type 12, 12, 6
	octave 4
	note C#, 4
	octave 3
	note B_, 4
	note A_, 4
	note E_, 4
	note_type 12, 11, 0
	note F#, 8
	note_type 12, 11, 7
	note F#, 8
	note_type 12, 12, 7
	note D#, 12
	note_type 12, 12, 7
	note F#, 4
	note_type 12, 11, 0
	note B_, 5
	note_type 12, 11, 7
	note B_, 5
	note_type 12, 12, 3
	note F#, 2
	note F#, 2
	note B_, 2
	note_type 12, 12, 7
	octave 4
	note C#, 4
	octave 3
	note B_, 4
	octave 4
	note C#, 4
	note E_, 4
	note_type 12, 11, 0
	note D#, 16
	note_type 12, 11, 0
	note D#, 8
	note_type 12, 11, 7
	note D#, 8
	note_type 12, 12, 4
	rest 4
	octave 3
	note A_, 3
	octave 4
	note E_, 1
	note A_, 4
	note G#, 4
	note_type 12, 10, 0
	note C#, 6
	note D#, 6
	note E_, 4
	note_type 12, 12, 3
	note F#, 3
	note E_, 1
	note_type 12, 11, 0
	note D#, 6
	note_type 12, 11, 7
	note D#, 6
	note_type 12, 12, 3
	octave 3
	note B_, 3
	note F#, 1
	note_type 12, 11, 0
	octave 4
	note D#, 6
	note_type 12, 11, 7
	octave 4
	note D#, 6
	note_type 12, 12, 4
	rest 4
	octave 3
	note A_, 3
	octave 4
	note E_, 1
	note A_, 4
	note G#, 4
	note_type 12, 11, 0
	note C#, 6
	note D#, 6
	note E_, 4
	note_type 12, 12, 3
	note F#, 3
	note D#, 1
	note_type 12, 11, 0
	note B_, 6
	note_type 12, 11, 7
	note B_, 6
	note_type 12, 12, 3
	note B_, 3
	note F#, 1
	note_type 12, 11, 0
	octave 5
	note D#, 6
	note_type 12, 11, 7
	octave 5
	note D#, 6
	note_type 12, 12, 2
	octave 3
	note F#, 2
	note F#, 1
	note F#, 1
	note F#, 2
	note_type 12, 12, 1
	note F#, 1
	note F#, 1
	note F#, 1
	note F#, 1
	note_type 12, 12, 2
	note F#, 6
	note F#, 2
	note F#, 1
	note F#, 1
	note F#, 2
	note_type 12, 12, 1
	note F#, 1
	note F#, 1
	note F#, 1
	note F#, 1
	note_type 12, 12, 2
	note F#, 2
	sound_loop 0, .mainloop

Music_Route37_Ch3:
	note_type 12, 1, 4
.mainloop:
	octave 2
	note F#, 2
	rest 6
	note F#, 2
	rest 6
	note F#, 2
	rest 6
	note F#, 2
	rest 6
	note F#, 2
	note B_, 2
	note F#, 2
	note B_, 2
	note F#, 2
	note B_, 2
	note F#, 2
	note B_, 2
	note A_, 2
	octave 3
	note C#, 2
	octave 2
	note G#, 2
	note B_, 2
	note F#, 2
	note A_, 2
	note F#, 2
	note E_, 2
	note D#, 2
	note F#, 2
	note D#, 2
	note F#, 2
	note D#, 2
	note F#, 2
	note D#, 2
	note F#, 2
	note F#, 2
	note B_, 2
	note F#, 2
	note B_, 2
	note F#, 2
	note B_, 2
	note F#, 2
	note B_, 2
	note F#, 2
	note B_, 2
	note F#, 2
	note B_, 2
	note F#, 2
	note B_, 2
	note F#, 2
	note B_, 2
	note A_, 2
	octave 3
	note C#, 2
	octave 2
	note G#, 2
	note B_, 2
	note F#, 2
	note A_, 2
	octave 3
	note C#, 2
	octave 2
	note A_, 2
	note F#, 2
	note B_, 2
	note F#, 2
	note B_, 2
	note F#, 2
	note B_, 2
	note F#, 2
	note B_, 2
	note B_, 2
	octave 3
	note D#, 2
	octave 2
	note B_, 2
	octave 3
	note D#, 2
	octave 2
	note B_, 2
	octave 3
	note D#, 2
	octave 2
	note B_, 2
	octave 3
	note D#, 2
	octave 2
	note A_, 2
	octave 3
	note C#, 2
	octave 2
	note A_, 2
	octave 3
	note C#, 2
	octave 2
	note A_, 2
	octave 3
	note C#, 2
	octave 2
	note A_, 2
	octave 3
	note C#, 2
	octave 2
	note A_, 2
	octave 3
	note C#, 2
	octave 2
	note A_, 2
	octave 3
	note C#, 2
	octave 2
	note A_, 2
	octave 3
	note C#, 2
	note E_, 2
	note C#, 2
	octave 2
	note B_, 2
	octave 3
	note D#, 2
	octave 2
	note B_, 2
	octave 3
	note D#, 2
	octave 2
	note B_, 2
	octave 3
	note D#, 2
	octave 2
	note B_, 2
	octave 3
	note D#, 2
	octave 2
	note B_, 2
	octave 3
	note F#, 2
	octave 2
	note B_, 2
	octave 3
	note F#, 2
	octave 2
	note B_, 2
	octave 3
	note F#, 2
	octave 2
	note B_, 2
	octave 3
	note F#, 2
	octave 2
	note A_, 2
	octave 3
	note C#, 2
	octave 2
	note A_, 2
	octave 3
	note C#, 2
	octave 2
	note A_, 2
	octave 3
	note C#, 2
	octave 2
	note A_, 2
	octave 3
	note C#, 2
	octave 2
	note A_, 2
	octave 3
	note C#, 2
	octave 2
	note A_, 2
	octave 3
	note C#, 2
	octave 2
	note A_, 2
	octave 3
	note C#, 2
	note E_, 2
	note C#, 2
	octave 2
	note B_, 2
	octave 3
	note D#, 2
	octave 2
	note B_, 2
	octave 3
	note D#, 2
	octave 2
	note B_, 2
	octave 3
	note D#, 2
	octave 2
	note B_, 2
	octave 3
	note D#, 2
	octave 2
	note F#, 2
	note B_, 2
	note F#, 2
	note B_, 2
	note F#, 2
	note B_, 2
	note F#, 2
	note B_, 2
	sound_loop 0, .mainloop

Music_Route37_Ch4:
.mainloop:
	drum_speed 12
	drum_note 3, 2
	drum_note 4, 1
	drum_note 4, 1
	drum_note 3, 2
	drum_note 4, 1
	drum_note 4, 1
	drum_note 3, 2
	drum_note 4, 1
	drum_note 4, 1
	drum_note 3, 1
	drum_note 4, 1
	drum_note 4, 1
	drum_note 3, 1
	drum_note 3, 2
	drum_note 4, 1
	drum_note 4, 1
	drum_note 3, 2
	drum_note 4, 1
	drum_note 4, 1
	drum_note 3, 2
	drum_note 4, 1
	drum_note 4, 1
	drum_speed 6
	drum_note 4, 1
	drum_note 4, 1
	drum_note 4, 1
	drum_note 4, 1
	drum_note 4, 1
	drum_note 3, 1
	drum_note 3, 1
	drum_note 3, 1
	sound_loop 0, .mainloop
