Music_RuinsOfAlph:
	channel_count 4
	channel 1, Music_RuinsOfAlph_Ch1
	channel 2, Music_RuinsOfAlph_Ch2
	channel 3, Music_RuinsOfAlph_Ch3
	channel 4, Music_RuinsOfAlph_Ch4

Music_RuinsOfAlph_Ch1:
	tempo 160
	volume 7, 7
	duty_cycle 1
	toggle_perfect_pitch
	vibrato 24, 3, 4
.mainloop:
	note_type 12, 11, 3
	octave 2
	note G#, 2
	octave 3
	note C#, 2
	note E_, 12
	octave 2
	note G#, 2
	octave 3
	note C#, 2
	note E_, 12
	octave 2
	note G#, 2
	octave 3
	note C#, 2
	note E_, 12
	octave 2
	note G#, 2
	octave 3
	note C#, 2
	note E_, 12
	octave 2
	note G#, 2
	octave 3
	note C#, 2
	note E_, 4
	note C#, 2
	note E_, 2
	note F_, 4
	octave 2
	note G#, 2
	octave 3
	note C#, 2
	note E_, 4
	note C#, 2
	note E_, 2
	note F_, 4
	octave 2
	note G#, 2
	octave 3
	note C#, 2
	note E_, 4
	note C#, 2
	note E_, 2
	note F_, 4
	octave 2
	note G#, 2
	octave 3
	note C#, 2
	note E_, 4
	note C#, 2
	note E_, 2
	note F_, 4
	octave 2
	note G#, 2
	octave 3
	note C#, 2
	note E_, 4
	note C#, 2
	note E_, 2
	note F_, 4
	octave 2
	note G#, 2
	octave 3
	note C#, 2
	note E_, 4
	note C#, 2
	note E_, 2
	note F_, 4
	octave 2
	note G#, 2
	octave 3
	note C#, 2
	note E_, 4
	note C#, 2
	note E_, 2
	note F_, 4
	octave 2
	note G#, 2
	octave 3
	note C#, 2
	note E_, 4
	note C#, 2
	note E_, 2
	note F_, 4
	octave 2
	note A_, 2
	octave 3
	note D_, 2
	note F_, 4
	note D_, 2
	note F_, 2
	note F#, 4
	octave 2
	note A_, 2
	octave 3
	note D_, 2
	note F_, 4
	note D_, 2
	note F_, 2
	note F#, 4
	octave 2
	note A_, 2
	octave 3
	note D_, 2
	note F_, 4
	note D_, 2
	note F_, 2
	note F#, 4
	octave 2
	note A_, 2
	octave 3
	note D_, 2
	note F_, 4
	note D_, 2
	note F_, 2
	note F#, 4
	rest 4
	note_type 12, 8, 0
	note F_, 16
	note F#, 16
	note G_, 16
	note F#, 16
	note G_, 8
	note F#, 8
	note F_, 8
	note E_, 8
	note G_, 8
	note F#, 8
	octave 4
	note C_, 8
	octave 3
	note A_, 8
	note_type 12, 9, 5
	toggle_perfect_pitch
	octave 2
	note G#, 2
	octave 3
	note C#, 2
	note E_, 12
	octave 2
	note G#, 2
	octave 3
	note C#, 2
	note E_, 12
	octave 2
	note G#, 2
	octave 3
	note C#, 2
	note E_, 12
	octave 2
	note G#, 2
	octave 3
	note C#, 2
	note E_, 12
	toggle_perfect_pitch
	sound_loop 0, .mainloop

Music_RuinsOfAlph_Ch2:
	duty_cycle 3
	vibrato 8, 2, 4
.mainloop:
	note_type 12, 12, 4
	octave 4
	note C_, 4
	octave 3
	note A#, 4
	octave 4
	note C#, 2
	note D#, 2
	note C_, 2
	octave 3
	note A#, 2
	octave 4
	note C_, 4
	octave 3
	note A#, 4
	octave 4
	note C#, 8
	octave 3
	note A#, 4
	octave 4
	note C#, 4
	note F_, 2
	note E_, 2
	note C_, 2
	octave 3
	note A#, 2
	octave 4
	note C_, 8
	note C#, 4
	note C_, 4
	note_type 12, 12, 5
	octave 4
	note C_, 4
	octave 3
	note A#, 4
	octave 4
	note C#, 2
	note D#, 2
	note C_, 2
	octave 3
	note A#, 2
	octave 4
	note C_, 4
	octave 3
	note A#, 4
	octave 4
	note C#, 8
	octave 3
	note A#, 4
	octave 4
	note C#, 4
	note F_, 2
	note E_, 2
	note C_, 2
	octave 3
	note A#, 2
	octave 4
	note C_, 8
	note C#, 4
	note C_, 4
	note_type 12, 12, 7
	octave 4
	note C_, 4
	octave 3
	note A#, 4
	octave 4
	note C#, 2
	note D#, 2
	note C_, 2
	octave 3
	note A#, 2
	octave 4
	note C_, 4
	octave 3
	note A#, 4
	octave 4
	note C#, 8
	octave 3
	note A#, 4
	octave 4
	note C#, 4
	note F_, 2
	note E_, 2
	note C_, 2
	octave 3
	note A#, 2
	octave 4
	note C_, 8
	note C#, 4
	note C_, 4
	note_type 12, 12, 4
	note C#, 4
	octave 3
	note B_, 4
	octave 4
	note D_, 2
	note E_, 2
	note C#, 2
	octave 3
	note B_, 2
	octave 4
	note C#, 4
	octave 3
	note B_, 4
	octave 4
	note D_, 8
	octave 3
	note B_, 4
	octave 4
	note D_, 4
	note F#, 2
	note F_, 2
	note C#, 2
	octave 3
	note B_, 2
	octave 4
	note C#, 8
	note D_, 4
	note C#, 4
	rest 4
	note_type 12, 10, 0
	note C_, 16
	note C#, 16
	note D_, 16
	note C#, 16
	note E_, 16
	note D#, 16
	note A#, 16
	note A_, 16
	note_type 12, 10, 5
	vibrato 0, 4, 4
	octave 2
	note G#, 2
	octave 3
	note C#, 2
	note E_, 12
	vibrato 0, 6, 3
	octave 2
	note G#, 2
	octave 3
	note C#, 2
	note E_, 12
	vibrato 0, 8, 2
	octave 2
	note G#, 2
	octave 3
	note C#, 2
	note E_, 12
	vibrato 0, 10, 1
	octave 2
	note G#, 2
	octave 3
	note C#, 2
	note E_, 12
	vibrato 8, 2, 4
	sound_loop 0, .mainloop

Music_RuinsOfAlph_Ch3:
	note_type 12, 1, 4
.mainloop:
	rest 16
	rest 16
	rest 16
	rest 16
	rest 16
	rest 16
	rest 16
	rest 14
	octave 4
	note C_, 2
	rest 2
	octave 3
	note E_, 2
	rest 2
	note E_, 2
	note G#, 2
	note E_, 2
	rest 2
	octave 4
	note C_, 2
	rest 2
	octave 3
	note E_, 2
	rest 2
	note E_, 2
	note G#, 2
	note E_, 2
	rest 2
	octave 4
	note C_, 2
	rest 2
	octave 3
	note E_, 2
	rest 2
	note E_, 2
	note G#, 2
	note E_, 2
	rest 2
	octave 4
	note C_, 2
	rest 2
	octave 3
	note E_, 2
	rest 2
	note E_, 2
	note G#, 2
	note E_, 2
	rest 2
	octave 4
	note C_, 2
	rest 2
	octave 3
	note F_, 2
	rest 2
	note F_, 2
	note A_, 2
	note F_, 2
	rest 2
	octave 4
	note C#, 2
	rest 2
	octave 3
	note F_, 2
	rest 2
	note F_, 2
	note A_, 2
	note F_, 2
	rest 2
	octave 4
	note C#, 2
	rest 2
	octave 3
	note F_, 2
	rest 2
	note F_, 2
	note A_, 2
	note F_, 2
	rest 2
	octave 4
	note C#, 2
	rest 2
	octave 3
	note F_, 2
	rest 2
	note F_, 2
	note A_, 2
	note F_, 2
	rest 2
	octave 4
	note C#, 2
	rest 4
	note C_, 8
	octave 3
	note B_, 8
	note A#, 8
	note A_, 8
	octave 4
	note C#, 8
	note C_, 8
	octave 3
	note B_, 8
	note A#, 8
	note A_, 4
	note G_, 4
	note A#, 2
	octave 4
	note C_, 2
	octave 3
	note A_, 2
	note G_, 2
	note A_, 4
	note G_, 4
	note A#, 2
	octave 4
	note C_, 2
	octave 3
	note A_, 2
	note G_, 2
	note A_, 4
	note G_, 4
	note A#, 2
	octave 4
	note C_, 2
	octave 3
	note A_, 2
	note G_, 2
	note A_, 4
	note G_, 4
	note A#, 8
	rest 16
	rest 16
	rest 16
	rest 16
	sound_loop 0, .mainloop

Music_RuinsOfAlph_Ch4:
	drum_speed 12
.mainloop:
	drum_note 12, 4
	drum_note 13, 4
	drum_note 16, 4
	rest 8
	drum_note 12, 4
	drum_note 13, 4
	drum_note 16, 4
	rest 8
	sound_loop 0, .mainloop
