Music_SilentHills:
	channel_count 4
	channel 1, Music_SilentHills_Ch1
	channel 2, Music_SilentHills_Ch2
	channel 3, Music_SilentHills_Ch3
	channel 4, Music_SilentHills_Ch4

Music_SilentHills_Ch1:
	tempo 168
	volume 7, 7
	duty_cycle 3
	toggle_perfect_pitch
	vibrato 18, 1, 5
	note_type 12, 12, 2
	rest 4
.mainloop:
	note_type 12, 12, 2
	octave 3
	note F_, 2
	note D_, 2
	note A#, 2
	note D_, 2
	note F_, 2
	note D_, 2
	note A#, 2
	note D_, 2
	note F_, 2
	note D_, 2
	note A#, 2
	note D_, 2
	note D_, 2
	note C_, 2
	octave 2
	note A#, 2
	note A_, 2
	octave 3
	note D#, 2
	note C_, 2
	note G_, 2
	note C_, 2
	note D#, 2
	note C_, 2
	note G_, 2
	note C_, 2
	note F_, 2
	note C_, 2
	note A_, 2
	note C_, 2
	note A_, 2
	note G_, 2
	note A_, 2
	note F_, 2
	note F_, 2
	note D_, 2
	note A#, 2
	note D_, 2
	note F_, 2
	note D_, 2
	note A#, 2
	note D_, 2
	note F_, 2
	note D_, 2
	note A#, 2
	note A_, 2
	note A#, 2
	note A_, 2
	note G_, 2
	note F_, 2
	note D#, 2
	note C_, 2
	note G_, 2
	note D#, 2
	note G_, 2
	note F_, 2
	note G_, 2
	note A#, 2
	note A_, 2
	note F_, 2
	octave 4
	note C_, 2
	octave 3
	note F_, 2
	note A_, 2
	note F_, 2
	octave 4
	note C_, 2
	octave 3
	note F_, 2
	note_type 12, 12, 7
	octave 4
	note C_, 6
	octave 3
	note A#, 6
	note G_, 4
	note A_, 16
	octave 4
	note C_, 6
	octave 3
	note A#, 6
	octave 4
	note D_, 4
	note D#, 6
	note D_, 6
	note C_, 4
	note C_, 6
	octave 3
	note A#, 6
	note G_, 4
	note A_, 16
	octave 4
	note C_, 6
	octave 3
	note A#, 6
	octave 4
	note D_, 4
	note F_, 12
	octave 3
	note A#, 2
	octave 4
	note C_, 2
	sound_loop 0, .mainloop

Music_SilentHills_Ch2:
	duty_cycle 3
	vibrato 8, 2, 6
	note_type 12, 13, 3
	octave 3
	note A#, 2
	octave 4
	note C_, 2
.mainloop:
	note_type 12, 13, 4
	note D_, 4
	note F_, 4
	note D#, 2
	note D_, 2
	note C_, 2
	octave 3
	note A#, 2
	octave 4
	note D_, 6
	octave 3
	note A#, 2
	note F_, 6
	note D#, 1
	note F_, 1
	note G_, 4
	note A#, 4
	octave 4
	note C_, 2
	octave 3
	note A#, 2
	note A_, 2
	note A#, 2
	octave 4
	note C_, 6
	note D_, 2
	note C_, 6
	octave 3
	note A#, 1
	octave 4
	note C_, 1
	note D_, 4
	note F_, 4
	note F#, 2
	note F_, 2
	note D#, 2
	note F#, 2
	note F_, 6
	note A_, 2
	note A#, 6
	note C_, 1
	note D_, 1
	note_type 12, 13, 7
	note D#, 6
	note F_, 2
	note G_, 8
	note F_, 6
	note F_, 1
	note G_, 1
	note A_, 8
	note G_, 6
	note F_, 6
	note D#, 4
	note C_, 16
	note G_, 6
	note F_, 6
	note A#, 4
	note A_, 16
	note G_, 6
	note F_, 6
	note D#, 4
	note C_, 16
	note G_, 6
	note F_, 6
	note A#, 4
	note A_, 16
	sound_loop 0, .mainloop

Music_SilentHills_Ch3:
	note_type 12, 1, 3
	rest 4
.mainloop:
	octave 4
	note F_, 6
	note D_, 6
	note A#, 4
	note F_, 6
	note D_, 6
	note F_, 4
	note G_, 6
	note D#, 6
	note A#, 4
	note A_, 6
	note G_, 6
	note F_, 4
	note A#, 6
	note D_, 6
	note A#, 4
	note F_, 6
	note D_, 6
	note A#, 4
	note D#, 6
	note G_, 6
	note D#, 4
	note F_, 6
	note G_, 6
	note A_, 4
	note G_, 6
	note A#, 6
	note G_, 4
	note A_, 2
	note F_, 2
	octave 5
	note C_, 2
	octave 4
	note F_, 2
	note A_, 2
	note F_, 2
	octave 5
	note C_, 2
	octave 4
	note F_, 2
	note G_, 6
	note A#, 6
	note G_, 4
	note A_, 2
	note F_, 2
	octave 5
	note C_, 2
	note D_, 2
	note D#, 2
	note D_, 2
	note C_, 2
	octave 4
	note A_, 2
	note G_, 6
	note A#, 6
	note G_, 4
	note A_, 2
	note F_, 2
	octave 5
	note C_, 2
	octave 4
	note F_, 2
	note A_, 2
	note F_, 2
	octave 5
	note C_, 2
	octave 4
	note F_, 2
	note G_, 6
	note A#, 6
	octave 5
	note D_, 4
	note F_, 6
	note D#, 6
	note C_, 4
	sound_loop 0, .mainloop

Music_SilentHills_Ch4:
	drum_speed 12
	rest 4
.mainloop:
	drum_note 12, 6
	drum_note 12, 6
	drum_note 12, 2
	drum_note 12, 2
	drum_note 12, 6
	drum_note 12, 6
	drum_note 12, 4
	drum_note 12, 6
	drum_note 12, 6
	drum_note 12, 2
	drum_note 12, 2
	drum_note 12, 6
	drum_note 12, 6
	drum_note 12, 4
	drum_note 12, 6
	drum_note 12, 6
	drum_note 12, 2
	drum_note 12, 2
	drum_note 12, 6
	drum_note 12, 6
	drum_note 12, 4
	drum_note 12, 6
	drum_note 12, 6
	drum_note 12, 2
	drum_note 12, 2
	drum_note 12, 6
	drum_note 12, 4
	drum_note 12, 2
	drum_note 12, 2
	drum_note 12, 2
	rest 2
	drum_note 12, 4
	drum_note 12, 4
	drum_note 12, 2
	drum_note 12, 2
	drum_note 12, 2
	drum_note 12, 6
	drum_note 12, 6
	drum_note 12, 2
	drum_note 12, 2
	rest 2
	drum_note 12, 4
	drum_note 12, 4
	drum_note 12, 2
	drum_note 12, 2
	drum_note 12, 2
	drum_note 12, 6
	drum_note 12, 6
	drum_note 12, 4
	rest 2
	drum_note 12, 4
	drum_note 12, 4
	drum_note 12, 2
	drum_note 12, 2
	drum_note 12, 2
	drum_note 12, 6
	drum_note 12, 6
	drum_note 12, 4
	drum_note 12, 2
	drum_note 12, 4
	drum_note 12, 4
	drum_note 12, 2
	drum_note 12, 2
	drum_note 12, 2
	drum_note 12, 6
	drum_note 12, 4
	drum_note 12, 2
	drum_note 12, 2
	drum_note 12, 2
	sound_loop 0, .mainloop
